<svg width="80" height="80" viewBox="0 0 80 80" fill="none" xmlns="http://www.w3.org/2000/svg">
<path d="M54.9228 31.4086H38.3952C36.7761 31.4086 35.4657 30.0981 35.4657 28.4791C35.4657 26.86 36.7761 25.5496 38.3952 25.5496H54.9228C56.5419 25.5496 57.8523 26.86 57.8523 28.4791C57.8523 30.0981 56.5419 31.4086 54.9228 31.4086Z" fill="#00B682"/>
<path d="M48.2615 42.8227H31.7433C30.1243 42.8227 28.8138 41.5122 28.8138 39.8932C28.8138 38.2741 30.1243 36.9637 31.7433 36.9637H48.2615C49.8805 36.9637 51.191 38.2741 51.191 39.8932C51.191 41.5122 49.8805 42.8227 48.2615 42.8227Z" fill="#00B682"/>
<path d="M41.5241 54.4362H24.9964C23.3774 54.4362 22.0669 53.1257 22.0669 51.5067C22.0669 49.8876 23.3774 48.5772 24.9964 48.5772H41.5241C43.1432 48.5772 44.4536 49.8876 44.4536 51.5067C44.4536 53.1257 43.1432 54.4362 41.5241 54.4362Z" fill="#00B682"/>
<path d="M67.1204 38.0462C67.0159 37.8278 66.883 37.6284 66.7358 37.4432L71.1466 29.8465C73.5491 25.7158 73.5633 20.7731 71.1799 16.6282C68.7916 12.4784 64.5137 10 59.723 10H39.7673C35.0906 10 30.713 12.5212 28.3438 16.5807L8.85337 50.1535C6.4509 54.2842 6.43666 59.2269 8.82013 63.3718C11.2084 67.5216 15.4863 70 20.277 70H54.4718C60.5634 70 66.1375 66.9233 69.3804 61.7623C72.6232 56.606 72.9841 50.2485 70.3442 44.7598L67.1204 38.0462ZM25.3193 63.8039H20.2722C17.7321 63.8039 15.4578 62.4887 14.1901 60.2857C12.9271 58.0874 12.9319 55.4665 14.2091 53.2729L33.709 19.6953C34.9672 17.535 37.2937 16.1961 39.7768 16.1961H59.7325C62.2727 16.1961 64.547 17.5113 65.8147 19.7143C67.0776 21.9126 67.0729 24.5335 65.7957 26.7271L46.2863 60.3094C45.0423 62.4602 42.7253 63.7992 40.2374 63.7992H25.3193V63.8039Z" fill="#00B682"/>
</svg>
