<svg width="48" height="48" viewBox="0 0 48 48" fill="none" xmlns="http://www.w3.org/2000/svg"><path d="M32.6959 26.0677C32.6685 26.0677 32.6137 26.0677 32.5863 26.0677C31.7648 26.0403 30.9707 25.5748 30.5599 24.7532C30.067 23.7674 30.3408 22.5898 31.135 21.9326C29.355 22.8363 21.6325 26.6428 19.9073 27.4643C19.7978 27.5191 19.7156 27.5464 19.6609 27.5738C18.5929 28.0667 18.0452 29.3264 18.5107 30.504C18.6203 30.7504 18.7572 30.9695 18.9489 31.1886C19.5787 31.8458 20.5098 32.0923 21.3313 31.8184C21.3861 31.791 21.4409 31.7636 21.523 31.7636L21.8516 31.6267L22.5362 31.3529C22.6732 31.2981 33.3805 26.0403 33.3805 26.0403C33.49 25.9855 33.5722 25.9581 33.6817 25.9034C33.3805 25.9855 33.0245 26.0677 32.6959 26.0677Z" fill="#FF1F1F"></path><path d="M39.3494 15.8532C39.2672 14.3744 38.9934 13.0052 38.5278 11.7455C38.2814 11.0883 37.9527 10.4584 37.542 9.88334C37.1586 9.33565 36.7478 8.84273 36.2823 8.34981C34.9404 6.9532 33.3248 5.93998 31.4626 5.33752C29.2445 4.62552 26.9716 4.62552 24.6987 5.31014C24.6165 5.33752 24.5344 5.36491 24.4248 5.39229C23.3294 5.74829 22.2888 6.32336 21.2756 7.06274C20.0159 8.0212 18.9479 9.22612 18.1538 10.6501C17.6335 11.5812 17.3049 12.6218 17.1953 13.7719C17.3596 13.1421 17.7978 12.567 18.4276 12.2384C19.6051 11.6633 21.0291 12.1289 21.6042 13.3064C21.7411 13.5802 21.8233 13.8541 21.8507 14.1279C21.8507 14.0458 21.8781 13.9636 21.8781 13.8815C22.0697 12.567 22.8639 11.4716 24.2879 10.5406C24.8356 10.1846 25.4106 9.91073 25.9857 9.71903C27.4919 9.22611 29.0802 9.30827 30.6685 9.9655C33.1878 11.0061 34.8857 13.7172 34.7214 16.4282C34.6392 17.6605 34.3654 18.619 33.8451 19.4405C33.3248 20.2894 32.6675 20.9741 31.9008 21.467C32.9962 21.111 34.2011 21.6039 34.7214 22.6719C35.2965 23.822 34.8309 25.2187 33.6808 25.8211C36.0084 24.6436 37.7884 22.5897 38.61 20.0978C38.7469 19.7418 38.8564 19.4131 38.9386 19.0571C39.2946 17.9891 39.4041 16.9212 39.3494 15.8532Z" fill="#AA02D3"></path><path d="M34.7763 22.672C34.256 21.604 33.051 21.1384 31.9557 21.467C31.8461 21.4944 31.7366 21.5492 31.627 21.604C31.4627 21.6861 31.2984 21.7956 31.1341 21.9326C30.34 22.6172 30.0661 23.7673 30.5591 24.7532C30.9424 25.5473 31.7366 26.0402 32.5855 26.0676C32.6129 26.0676 32.6677 26.0676 32.695 26.0676C33.0237 26.0676 33.3797 25.9855 33.7083 25.8212C33.7083 25.8212 33.7357 25.8212 33.7357 25.7938C34.8858 25.2187 35.3513 23.8221 34.7763 22.672Z" fill="#EF726C"></path><path d="M21.8519 14.1555C21.8245 13.7995 21.6876 13.4435 21.4685 13.1148C20.8661 12.1838 19.6611 11.8004 18.6479 12.1838C17.8812 12.485 17.3882 13.0875 17.1965 13.7994C17.1144 14.1281 17.087 14.4841 17.1418 14.8127C17.1692 15.0318 17.2513 15.2508 17.3608 15.4699C17.6073 15.9354 17.9633 16.2914 18.4015 16.5379C19.0587 16.8665 19.8528 16.8939 20.5374 16.5653C21.4685 16.0724 21.9614 15.1139 21.8519 14.1555Z" fill="#FF7878"></path><path d="M29.4914 17.332C28.9163 16.1818 27.5471 15.7163 26.3969 16.2914C26.3147 16.3461 26.2052 16.4009 26.1231 16.4557L25.4384 16.7295C25.3015 16.7843 14.5942 22.0421 14.5942 22.0421C14.4847 22.0969 14.4025 22.1243 14.293 22.179C14.6216 22.0147 14.9502 21.9326 15.3062 21.9326C15.3336 21.9326 15.3883 21.9326 15.4157 21.9326C16.2373 21.96 17.0314 22.4255 17.4422 23.247C17.9351 24.2329 17.6613 25.4104 16.8671 26.0676C18.6471 25.1639 26.3695 21.3575 28.0674 20.536C28.2043 20.5086 28.3138 20.4538 28.4234 20.399C29.5735 19.8514 30.039 18.4548 29.4914 17.332Z" fill="#2D2F54"></path><path d="M8.65396 32.1469C8.73611 33.6257 9.00996 34.9949 9.47549 36.2546C9.72195 36.9118 10.0506 37.5417 10.4613 38.1167C10.8447 38.6644 11.2555 39.1573 11.721 39.6503C13.0629 41.0469 14.6785 42.0601 16.5407 42.6625C18.7588 43.3745 21.0317 43.3745 23.3047 42.6899C23.3868 42.6625 23.469 42.6352 23.5785 42.6078C24.6739 42.2518 25.7145 41.6767 26.7277 40.9373C27.9874 39.9789 29.0554 38.7739 29.8495 37.35C30.3698 36.4189 30.6985 35.3783 30.808 34.2281C30.6437 34.858 30.2055 35.433 29.5757 35.7617C28.3982 36.3367 26.9742 35.8712 26.3991 34.6937C26.2622 34.4198 26.18 34.146 26.1526 33.8721C26.1526 33.9543 26.1253 34.0364 26.1253 34.1186C25.9336 35.433 25.1394 36.5284 23.7154 37.4595C23.1677 37.8155 22.5927 38.0893 22.0176 38.281C20.5114 38.774 18.9231 38.6918 17.3348 38.0346C14.8155 36.994 13.1176 34.2829 13.2819 31.5718C13.3641 30.3395 13.6379 29.3811 14.1582 28.5595C14.6785 27.7106 15.3358 27.026 16.1025 26.5331C15.0072 26.8891 13.8022 26.3962 13.2819 25.3282C12.7069 24.178 13.1724 22.7814 14.3225 22.179C11.9949 23.3565 10.2149 25.4103 9.39334 27.9023C9.25642 28.2583 9.14688 28.5869 9.06473 28.9429C8.70873 30.0109 8.59919 31.0789 8.65396 32.1469Z" fill="#0847F9"></path><path d="M17.4441 23.2471C17.0607 22.4529 16.2666 21.96 15.4177 21.9326C15.3903 21.9326 15.3355 21.9326 15.3081 21.9326C14.9795 21.9326 14.6235 22.0148 14.2949 22.1791C14.2949 22.1791 14.2675 22.1791 14.2675 22.2065C13.1174 22.7815 12.6518 24.1781 13.2269 25.3557C13.7472 26.4237 14.9521 26.8892 16.0475 26.5606C16.1571 26.5332 16.2666 26.4784 16.3761 26.4237C16.5404 26.3415 16.7047 26.232 16.8691 26.0951C17.6632 25.4104 17.937 24.2329 17.4441 23.2471Z" fill="#8761FF"></path><path d="M30.8635 33.2151C30.8361 32.996 30.754 32.7769 30.6444 32.5578C30.398 32.0923 30.042 31.7363 29.6038 31.4898C28.9466 31.1612 28.1525 31.1338 27.4679 31.4624C26.5642 31.928 26.0712 32.8864 26.1534 33.8449C26.1808 34.2009 26.3177 34.5569 26.5368 34.8855C27.1392 35.8166 28.3442 36.2 29.3574 35.8166C30.1241 35.5154 30.6171 34.9129 30.8088 34.2009C30.8909 33.8997 30.9183 33.5437 30.8635 33.2151Z" fill="#25BF88"></path><path opacity="0.12" d="M30.8635 33.2151C30.8361 32.996 30.754 32.7769 30.6444 32.5578C30.398 32.0923 30.042 31.7363 29.6038 31.4898C28.9466 31.1612 28.1525 31.1338 27.4679 31.4624C26.5642 31.928 26.0712 32.8864 26.1534 33.8449C26.1808 34.2009 26.3177 34.5569 26.5368 34.8855C27.1392 35.8166 28.3442 36.2 29.3574 35.8166C30.1241 35.5154 30.6171 34.9129 30.8088 34.2009C30.8909 33.8997 30.9183 33.5437 30.8635 33.2151Z" fill="#0847F9"></path></svg>