<svg xmlns="http://www.w3.org/2000/svg" width="16" height="16" viewBox="0 0 16 16" fill="none">
  <g clip-path="url(#clip0_59_5761)">
    <path d="M1 5C0.867392 5 0.740215 5.05268 0.646447 5.14645C0.552678 5.24021 0.5 5.36739 0.5 5.5V10.5C0.5 10.6326 0.552678 10.7598 0.646447 10.8536C0.740215 10.9473 0.867392 11 1 11C1.13261 11 1.25979 10.9473 1.35355 10.8536C1.44732 10.7598 1.5 10.6326 1.5 10.5V5.5C1.5 5.36739 1.44732 5.24021 1.35355 5.14645C1.25979 5.05268 1.13261 5 1 5Z" fill="#EE7B6F"/>
    <path d="M3 2.5C2.86739 2.5 2.74021 2.55268 2.64645 2.64645C2.55268 2.74021 2.5 2.86739 2.5 3V13C2.5 13.1326 2.55268 13.2598 2.64645 13.3536C2.74021 13.4473 2.86739 13.5 3 13.5C3.13261 13.5 3.25979 13.4473 3.35355 13.3536C3.44732 13.2598 3.5 13.1326 3.5 13V3C3.5 2.86739 3.44732 2.74021 3.35355 2.64645C3.25979 2.55268 3.13261 2.5 3 2.5Z" fill="#EE7B6F"/>
    <path d="M9 5C8.86739 5 8.74021 5.05268 8.64645 5.14645C8.55268 5.24021 8.5 5.36739 8.5 5.5V10.5C8.5 10.6326 8.55268 10.7598 8.64645 10.8536C8.74021 10.9473 8.86739 11 9 11C9.13261 11 9.25979 10.9473 9.35355 10.8536C9.44732 10.7598 9.5 10.6326 9.5 10.5V5.5C9.5 5.36739 9.44732 5.24021 9.35355 5.14645C9.25979 5.05268 9.13261 5 9 5Z" fill="#EE7B6F"/>
    <path d="M7 2.5C6.86739 2.5 6.74021 2.55268 6.64645 2.64645C6.55268 2.74021 6.5 2.86739 6.5 3V13C6.5 13.1326 6.55268 13.2598 6.64645 13.3536C6.74021 13.4473 6.86739 13.5 7 13.5C7.13261 13.5 7.25979 13.4473 7.35355 13.3536C7.44732 13.2598 7.5 13.1326 7.5 13V3C7.5 2.86739 7.44732 2.74021 7.35355 2.64645C7.25979 2.55268 7.13261 2.5 7 2.5Z" fill="#EE7B6F"/>
    <path d="M5 0.5C4.86739 0.5 4.74021 0.552678 4.64645 0.646447C4.55268 0.740215 4.5 0.867392 4.5 1V15C4.5 15.1326 4.55268 15.2598 4.64645 15.3536C4.74021 15.4473 4.86739 15.5 5 15.5C5.13261 15.5 5.25979 15.4473 5.35355 15.3536C5.44732 15.2598 5.5 15.1326 5.5 15V1C5.5 0.867392 5.44732 0.740215 5.35355 0.646447C5.25979 0.552678 5.13261 0.5 5 0.5Z" fill="#EE7B6F"/>
    <path d="M15 5C14.8674 5 14.7402 5.05268 14.6464 5.14645C14.5527 5.24021 14.5 5.36739 14.5 5.5V10.5C14.5 10.6326 14.5527 10.7598 14.6464 10.8536C14.7402 10.9473 14.8674 11 15 11C15.1326 11 15.2598 10.9473 15.3536 10.8536C15.4473 10.7598 15.5 10.6326 15.5 10.5V5.5C15.5 5.36739 15.4473 5.24021 15.3536 5.14645C15.2598 5.05268 15.1326 5 15 5Z" fill="#EE7B6F"/>
    <path d="M13 2.5C12.8674 2.5 12.7402 2.55268 12.6464 2.64645C12.5527 2.74021 12.5 2.86739 12.5 3V13C12.5 13.1326 12.5527 13.2598 12.6464 13.3536C12.7402 13.4473 12.8674 13.5 13 13.5C13.1326 13.5 13.2598 13.4473 13.3536 13.3536C13.4473 13.2598 13.5 13.1326 13.5 13V3C13.5 2.86739 13.4473 2.74021 13.3536 2.64645C13.2598 2.55268 13.1326 2.5 13 2.5Z" fill="#EE7B6F"/>
    <path d="M11 0.5C10.8674 0.5 10.7402 0.552678 10.6464 0.646447C10.5527 0.740215 10.5 0.867392 10.5 1V15C10.5 15.1326 10.5527 15.2598 10.6464 15.3536C10.7402 15.4473 10.8674 15.5 11 15.5C11.1326 15.5 11.2598 15.4473 11.3536 15.3536C11.4473 15.2598 11.5 15.1326 11.5 15V1C11.5 0.867392 11.4473 0.740215 11.3536 0.646447C11.2598 0.552678 11.1326 0.5 11 0.5Z" fill="#EE7B6F"/>
  </g>
  <defs>
    <clipPath id="clip0_59_5761">
      <rect width="16" height="16" fill="white"/>
    </clipPath>
  </defs>
</svg>