<svg width="16" height="20" viewBox="0 0 16 20" fill="none" xmlns="http://www.w3.org/2000/svg"><path d="M15.506 6.852A3.114 3.114 0 1 0 11.5 9.819a2.49 2.49 0 0 1-2.224 1.392h-2.49a3.72 3.72 0 0 0-2.491.97V6.168a3.114 3.114 0 1 0-1.245 0v7.597a3.147 3.147 0 1 0 1.513.083 2.49 2.49 0 0 1 2.224-1.39h2.491a3.74 3.74 0 0 0 3.52-2.532 3.11 3.11 0 0 0 2.708-3.073M1.804 3.115a1.868 1.868 0 1 1 3.737 0 1.868 1.868 0 0 1-3.737 0m3.737 13.7a1.868 1.868 0 1 1-3.737 0 1.868 1.868 0 0 1 3.737 0m6.85-8.095a1.869 1.869 0 1 1 0-3.737 1.869 1.869 0 0 1 0 3.737" fill="#000"/></svg>