<svg xmlns="http://www.w3.org/2000/svg" width="16" height="16" viewBox="0 0 16 16" fill="none">
  <path d="M15.8359 7.58835L12.1359 3.66832C11.9085 3.42714 11.5289 3.41614 11.2877 3.64373C11.0469 3.87114 11.0357 4.25092 11.2633 4.49192L14.5747 7.99994L11.2633 11.5084C11.0357 11.7494 11.0469 12.129 11.2877 12.3566C11.4037 12.466 11.5519 12.5202 11.6995 12.5202C11.8589 12.5202 12.0181 12.457 12.1359 12.3323L15.836 8.41213C16.0541 8.18076 16.0541 7.81954 15.8359 7.58835Z" fill="#EE7B6F"/>
  <path d="M4.73645 11.5082L1.42524 7.99999L4.73645 4.49178C4.96386 4.25078 4.95286 3.87097 4.71186 3.64359C4.47104 3.41618 4.09104 3.42718 3.86366 3.66818L0.163642 7.58821C-0.0545472 7.8194 -0.0545472 8.1808 0.163642 8.41202L3.86385 12.3322C3.98185 12.4572 4.14085 12.5202 4.30026 12.5202C4.44785 12.5202 4.59607 12.4658 4.71186 12.3564C4.95308 12.129 4.96386 11.7492 4.73645 11.5082Z" fill="#EE7B6F"/>
  <path d="M8.97031 1.64675C8.6429 1.59715 8.3365 1.82194 8.28649 2.14934L6.52648 13.6694C6.47648 13.997 6.70149 14.3032 7.02908 14.3532C7.05989 14.3578 7.09027 14.36 7.12049 14.36C7.4119 14.36 7.66749 14.1474 7.7129 13.8506L9.47291 2.33056C9.52291 2.00294 9.29791 1.69675 8.97031 1.64675Z" fill="#EE7B6F"/>
</svg>