 <svg xmlns="http://www.w3.org/2000/svg" width="16" height="16" viewBox="0 0 16 16" fill="none">
  <g clip-path="url(#clip0_59_5821)">
    <path d="M3.54991 6.03324L0.824781 4.4599C0.298219 5.52399 3.125e-05 6.72406 0 7.99993C0 9.25815 0.301406 10.4603 0.836062 11.5338L3.54972 9.96709C3.28206 9.3644 3.13041 8.69965 3.13044 7.99993C3.13047 7.30024 3.28222 6.63571 3.54991 6.03324Z" fill="#EE7B6F"/>
    <path d="M13.2476 1.9615C11.8417 0.738564 10.0045 -0.00134192 7.99441 1.82717e-06C5.24437 0.00184558 2.78981 1.40578 1.34766 3.557L4.075 5.13169C4.96191 3.92188 6.38875 3.13041 8.00003 3.13044C9.17462 3.13047 10.2513 3.55035 11.0923 4.2461C11.2982 4.41638 11.5992 4.40078 11.7881 4.21188L13.2734 2.72653C13.4876 2.51235 13.4761 2.16025 13.2476 1.9615Z" fill="#EE7B6F"/>
    <path d="M15.945 7.07436C15.9139 6.80952 15.6912 6.60905 15.4246 6.60905L8.86941 6.6087C8.58128 6.6087 8.34766 6.8423 8.34766 7.13045V9.21567C8.34766 9.5038 8.58125 9.73742 8.86941 9.73742H12.5428C12.2044 10.618 11.6167 11.375 10.8686 11.9253L12.4288 14.6278C13.9993 13.5635 15.1934 11.9544 15.7193 10.0549C16.0053 9.02214 16.0567 8.02345 15.945 7.07436Z" fill="#EE7B6F"/>
    <path d="M9.96697 12.4495C9.36525 12.7176 8.701 12.8696 8.0005 12.8697C6.38741 12.8697 4.96137 12.0782 4.07509 10.8689L1.35938 12.4368C2.78944 14.5669 5.2165 16.0001 8.00044 16.0001C9.25894 16.0001 10.4568 15.6925 11.5282 15.1537L9.96697 12.4495Z" fill="#EE7B6F"/>
  </g>
  <defs>
    <clipPath id="clip0_59_5821">
      <rect width="16" height="16" fill="white"/>
    </clipPath>
  </defs>
</svg>