<svg xmlns="http://www.w3.org/2000/svg" width="16" height="17" viewBox="0 0 16 17" fill="none">
  <path d="M11.8019 15.8542C11.6759 15.8542 11.5473 15.8382 11.4198 15.8049L1.11025 13.0441C0.314943 12.8247 -0.159067 12.0021 0.0489455 11.2074L1.18227 6.86131C1.25161 6.59458 1.52432 6.43259 1.79227 6.504C2.059 6.57334 2.21965 6.84666 2.1497 7.114L1.01625 11.4608C0.946306 11.7287 1.10561 12.0054 1.37234 12.0787L11.6759 14.8382C11.9406 14.9081 12.2139 14.7508 12.2833 14.4875L12.6352 13.0674C12.702 12.7994 12.9726 12.6367 13.2406 12.7022C13.5086 12.7688 13.672 13.0394 13.6059 13.3074L13.2526 14.7342C13.0745 15.4095 12.4666 15.8542 11.8019 15.8542Z" fill="#EE7B6F"/>
  <path d="M14.4997 11.854H4.16605C3.33876 11.854 2.66602 11.1813 2.66602 10.354V2.68705C2.66602 1.85976 3.33876 1.18701 4.16605 1.18701H14.4997C15.327 1.18701 15.9997 1.85976 15.9997 2.68705V10.354C15.9997 11.1813 15.327 11.854 14.4997 11.854ZM4.16605 2.18704C3.89004 2.18704 3.66604 2.41104 3.66604 2.68705V10.354C3.66604 10.63 3.89004 10.854 4.16605 10.854H14.4997C14.7757 10.854 14.9997 10.63 14.9997 10.354V2.68705C14.9997 2.41104 14.7757 2.18704 14.4997 2.18704H4.16605Z" fill="#EE7B6F"/>
  <path d="M5.99942 5.85383C5.26405 5.85383 4.66602 5.25579 4.66602 4.52042C4.66602 3.78505 5.26405 3.18701 5.99942 3.18701C6.73479 3.18701 7.33271 3.78505 7.33271 4.52042C7.33271 5.25579 6.73479 5.85383 5.99942 5.85383ZM5.99942 4.18704C5.81534 4.18704 5.66604 4.33645 5.66604 4.52042C5.66604 4.70438 5.81534 4.8538 5.99942 4.8538C6.18339 4.8538 6.33268 4.70438 6.33268 4.52042C6.33268 4.33645 6.18339 4.18704 5.99942 4.18704Z" fill="#EE7B6F"/>
  <path d="M3.17946 11.174C3.05152 11.174 2.92347 11.1253 2.82618 11.0274C2.63086 10.8321 2.63086 10.5153 2.82618 10.32L5.83955 7.30664C6.29562 6.85057 7.03758 6.85057 7.49292 7.30664L8.29897 8.11269L10.775 5.14057C10.9963 4.87518 11.321 4.72186 11.6657 4.7199C12.0364 4.69927 12.3364 4.86786 12.5597 5.12995L15.8785 9.00199C16.0584 9.21135 16.0338 9.52739 15.8244 9.70733C15.6145 9.88739 15.2991 9.86273 15.1191 9.65337L11.7991 5.77999C11.755 5.72725 11.701 5.72994 11.671 5.72054C11.6424 5.72054 11.587 5.72921 11.5431 5.78121L8.71633 9.17473C8.62624 9.28264 8.49502 9.34807 8.355 9.35405C8.21229 9.36199 8.07765 9.3073 7.97889 9.20805L6.78562 8.01466C6.7009 7.92994 6.63096 7.92994 6.54624 8.01466L3.53286 11.0274C3.43544 11.1253 3.30751 11.174 3.17946 11.174Z" fill="#EE7B6F"/>
</svg>