<svg xmlns="http://www.w3.org/2000/svg" width="16" height="16" viewBox="0 0 16 16" fill="none">
  <g clip-path="url(#clip0_59_5778)">
    <path d="M15.4519 4.32991L11.3757 0.0943125C11.3176 0.0340625 11.2376 0 11.1539 0H5.07863C4.39872 0 3.84556 0.552938 3.84556 1.23256V5.53847H1.38347C0.874781 5.53847 0.460938 5.95219 0.460938 6.46075V11.0778C0.460938 11.5863 0.874781 12 1.38347 12H3.84556V14.7696C3.84556 15.448 4.39872 16 5.07863 16H14.3048C14.9847 16 15.5379 15.4483 15.5379 14.7703V4.54328C15.5379 4.46372 15.507 4.38725 15.4519 4.32991ZM11.2302 0.830656L14.5764 4.30769H11.2302V0.830656ZM1.38347 11.3846C1.21409 11.3846 1.07634 11.247 1.07634 11.0778V6.46075C1.07634 6.29153 1.21412 6.15384 1.38347 6.15384H9.69228C9.86166 6.15384 9.99941 6.29153 9.99941 6.46075V11.0778C9.99941 11.247 9.86162 11.3846 9.69228 11.3846H1.38347ZM14.9225 14.7703C14.9225 15.109 14.6454 15.3846 14.3048 15.3846H5.07863C4.73803 15.3846 4.46094 15.1087 4.46094 14.7696V12H9.69228C10.201 12 10.6148 11.5863 10.6148 11.0778V6.46075C10.6148 5.95219 10.201 5.53847 9.69228 5.53847H4.46094V1.23256C4.46094 0.892219 4.73803 0.615375 5.07863 0.615375H10.6148V4.61538C10.6148 4.78531 10.7526 4.92306 10.9225 4.92306H14.9225V14.7703Z" fill="#EE7B6F"/>
    <path d="M4.14094 7.80912C4.03878 7.6763 3.91197 7.59006 3.76053 7.5504C3.66197 7.52396 3.45044 7.51074 3.12591 7.51074H2.26953V10.1538H2.80319V9.15677H3.15116C3.39275 9.15677 3.57725 9.14415 3.70466 9.1189C3.79841 9.09846 3.89066 9.05671 3.98141 8.99359C4.07216 8.93049 4.14697 8.84365 4.20588 8.73309C4.26478 8.62252 4.29422 8.48609 4.29422 8.32384C4.29419 8.11349 4.24309 7.94193 4.14094 7.80912ZM3.68391 8.53659C3.64366 8.59549 3.58806 8.63874 3.51712 8.6664C3.44619 8.69405 3.30559 8.70787 3.09525 8.70787H2.80319V7.95787H3.061C3.25331 7.95787 3.38131 7.96387 3.445 7.9759C3.53153 7.99152 3.60306 8.03059 3.65953 8.09309C3.71603 8.15559 3.74428 8.23493 3.74428 8.33106C3.74431 8.40918 3.72416 8.47768 3.68391 8.53659Z" fill="#EE7B6F"/>
    <path d="M6.85969 8.2328C6.802 8.06393 6.71784 7.92121 6.60728 7.80462C6.49672 7.68802 6.36388 7.6069 6.20884 7.56121C6.09347 7.52755 5.92578 7.51074 5.70584 7.51074H4.73047V10.1538H5.73469C5.93181 10.1538 6.08925 10.1351 6.20703 10.0979C6.3645 10.0474 6.4895 9.97709 6.58203 9.88693C6.70463 9.76793 6.79897 9.6123 6.86509 9.41999C6.91919 9.26252 6.94622 9.07502 6.94622 8.85749C6.94622 8.6099 6.91738 8.40168 6.85969 8.2328ZM6.34044 9.31815C6.30438 9.43656 6.25781 9.52159 6.20072 9.57324C6.14363 9.62493 6.07181 9.66159 5.98528 9.68321C5.91919 9.70005 5.81159 9.70846 5.66256 9.70846H5.26413V7.95787H5.50391C5.72144 7.95787 5.8675 7.96627 5.942 7.98312C6.04175 8.00474 6.12409 8.04621 6.189 8.10752C6.25391 8.16884 6.30438 8.25415 6.34044 8.36352C6.3765 8.4729 6.39453 8.62974 6.39453 8.83409C6.39453 9.0384 6.3765 9.19974 6.34044 9.31815Z" fill="#EE7B6F"/>
    <path d="M9.21425 7.95787V7.51074H7.40234V10.1538H7.936V9.03059H9.03937V8.58346H7.936V7.95787H9.21425Z" fill="#EE7B6F"/>
  </g>
  <defs>
    <clipPath id="clip0_59_5778">
      <rect width="16" height="16" fill="white"/>
    </clipPath>
  </defs>
</svg>