<svg xmlns="http://www.w3.org/2000/svg" width="16" height="16" viewBox="0 0 16 16" fill="none">
  <g clip-path="url(#clip0_59_5836)">
    <path d="M9.719 14.4652C9.13431 14.6582 8.52259 14.7561 7.90091 14.7561C6.72837 14.7561 5.58512 14.3989 4.62512 13.7414C5.03716 13.275 5.28797 12.663 5.28797 11.9932C5.28797 10.5353 4.10188 9.34924 2.644 9.34924C1.18613 9.34924 0 10.5353 0 11.9932C0 13.4511 1.18609 14.6372 2.644 14.6372C3.05566 14.6372 3.44556 14.5425 3.79328 14.374C4.97081 15.2674 6.41591 15.7561 7.90091 15.7561C8.62931 15.7561 9.34644 15.6413 10.0325 15.4148C10.2947 15.3283 10.4371 15.0455 10.3505 14.7833C10.264 14.5211 9.98119 14.3787 9.719 14.4652ZM1 11.9932C1 11.0867 1.7375 10.3492 2.644 10.3492C3.5505 10.3492 4.28797 11.0867 4.28797 11.9932C4.28797 12.8997 3.55047 13.6372 2.644 13.6372C1.7375 13.6372 1 12.8997 1 11.9932ZM7.90091 0.243958C6.50919 0.243958 5.36597 1.32505 5.26497 2.69143C4.327 3.0868 3.48131 3.69305 2.80366 4.4604C2.04228 5.32252 1.50944 6.36902 1.26269 7.48674C1.20316 7.75637 1.3735 8.02324 1.64316 8.08277C1.67947 8.09077 1.71569 8.09462 1.75141 8.09462C1.98087 8.09462 2.18766 7.93565 2.23919 7.70227C2.62122 5.97162 3.80791 4.49443 5.39494 3.7293C5.74728 4.7758 6.73712 5.5319 7.90088 5.5319C9.35878 5.5319 10.5448 4.3458 10.5448 2.88793C10.5448 1.43005 9.35881 0.243958 7.90091 0.243958ZM7.90091 4.53193C6.99441 4.53193 6.25691 3.79443 6.25691 2.88796C6.25691 1.98149 6.99441 1.24399 7.90091 1.24399C8.80741 1.24399 9.54488 1.98149 9.54488 2.88796C9.54488 3.79443 8.80741 4.53193 7.90091 4.53193ZM14.6464 9.80115C14.681 9.5218 14.6989 9.23962 14.6989 8.95812C14.6989 7.98871 14.4989 7.05221 14.1045 6.17458C13.7236 5.32712 13.1819 4.57771 12.4944 3.94724C12.2908 3.76061 11.9746 3.7743 11.7879 3.97783C11.6013 4.18137 11.615 4.49765 11.8185 4.68427C13.0136 5.78015 13.6989 7.33793 13.6989 8.95812C13.6989 9.13337 13.691 9.30893 13.6753 9.48362C13.5705 9.47096 13.4642 9.46368 13.3561 9.46368C11.8982 9.46368 10.7121 10.6498 10.7121 12.1076C10.7121 13.5655 11.8982 14.7516 13.3561 14.7516C14.814 14.7516 16 13.5655 16 12.1076C16 11.1181 15.4533 10.2544 14.6464 9.80115ZM13.356 13.7516C12.4495 13.7516 11.712 13.0141 11.712 12.1076C11.712 11.2012 12.4495 10.4637 13.356 10.4637C14.2625 10.4637 15 11.2012 15 12.1076C15 13.0141 14.2625 13.7516 13.356 13.7516Z" fill="#EE7B6F"/>
  </g>
  <defs>
    <clipPath id="clip0_59_5836">
      <rect width="16" height="16" fill="white"/>
    </clipPath>
  </defs>
</svg>