<svg xmlns="http://www.w3.org/2000/svg" width="16" height="16" viewBox="0 0 16 16" fill="none">
  <path d="M5.78534 11.5001C5.65903 11.4997 5.53756 11.4514 5.44534 11.3651C4.98875 10.9316 4.62515 10.4097 4.37668 9.83122C4.12822 9.25272 4.00009 8.6297 4.00009 8.0001C4.00009 7.3705 4.12822 6.74748 4.37668 6.16898C4.62515 5.59048 4.98875 5.0686 5.44534 4.6351C5.54374 4.55532 5.66874 4.51585 5.79511 4.52468C5.92148 4.53351 6.03978 4.58997 6.12612 4.68266C6.21246 4.77535 6.26041 4.89736 6.26026 5.02404C6.26012 5.15071 6.2119 5.27261 6.12534 5.3651C5.76992 5.70579 5.48709 6.11485 5.29388 6.56769C5.10067 7.02053 5.00107 7.50777 5.00107 8.0001C5.00107 8.49243 5.10067 8.97968 5.29388 9.43252C5.48709 9.88535 5.76992 10.2944 6.12534 10.6351C6.19845 10.7035 6.24932 10.7924 6.27136 10.8901C6.2934 10.9877 6.2856 11.0898 6.24897 11.183C6.21233 11.2762 6.14855 11.3563 6.06589 11.4128C5.98323 11.4693 5.88549 11.4998 5.78534 11.5001ZM3.78534 12.8401C3.87847 12.7464 3.93074 12.6197 3.93074 12.4876C3.93074 12.3555 3.87847 12.2288 3.78534 12.1351C3.22596 11.6014 2.78068 10.9598 2.47644 10.2491C2.17221 9.53831 2.01534 8.77322 2.01534 8.0001C2.01534 7.22698 2.17221 6.46189 2.47644 5.75115C2.78068 5.04041 3.22596 4.39878 3.78534 3.8651C3.88215 3.77161 3.93785 3.6435 3.94019 3.50894C3.94254 3.37438 3.89133 3.24441 3.79784 3.1476C3.70436 3.0508 3.57624 2.9951 3.44168 2.99275C3.30713 2.99041 3.17715 3.04161 3.08034 3.1351C2.42171 3.7627 1.89736 4.51751 1.53909 5.35377C1.18083 6.19003 0.996094 7.09033 0.996094 8.0001C0.996094 8.90988 1.18083 9.81018 1.53909 10.6464C1.89736 11.4827 2.42171 12.2375 3.08034 12.8651C3.12846 12.9104 3.18506 12.9457 3.24689 12.9689C3.30871 12.9922 3.37454 13.003 3.44056 13.0006C3.50657 12.9983 3.57148 12.9829 3.63151 12.9554C3.69155 12.9278 3.74554 12.8886 3.79034 12.8401H3.78534ZM10.5503 11.3651C11.0069 10.9316 11.3705 10.4097 11.619 9.83122C11.8675 9.25272 11.9956 8.6297 11.9956 8.0001C11.9956 7.3705 11.8675 6.74748 11.619 6.16898C11.3705 5.59048 11.0069 5.0686 10.5503 4.6351C10.5024 4.59012 10.4461 4.55503 10.3846 4.53182C10.3231 4.50861 10.2576 4.49773 10.1919 4.49982C10.1262 4.50191 10.0616 4.51692 10.0017 4.54399C9.9418 4.57107 9.88782 4.60967 9.84284 4.6576C9.79787 4.70553 9.76277 4.76186 9.73956 4.82335C9.71635 4.88485 9.70548 4.95031 9.70757 5.01601C9.70966 5.08171 9.72466 5.14635 9.75174 5.20625C9.77881 5.26615 9.81741 5.32012 9.86534 5.3651C10.2227 5.70467 10.5072 6.11338 10.7017 6.56637C10.8961 7.01935 10.9963 7.50715 10.9963 8.0001C10.9963 8.49305 10.8961 8.98085 10.7017 9.43384C10.5072 9.88682 10.2227 10.2955 9.86534 10.6351C9.76882 10.7254 9.712 10.8503 9.70732 10.9824C9.70263 11.1146 9.75046 11.2432 9.84034 11.3401C9.88754 11.391 9.94481 11.4315 10.0085 11.459C10.0722 11.4866 10.1409 11.5006 10.2103 11.5001C10.3367 11.4997 10.4581 11.4514 10.5503 11.3651ZM12.9103 12.8651C13.5709 12.2386 14.097 11.4842 14.4565 10.6478C14.816 9.81136 15.0014 8.9105 15.0014 8.0001C15.0014 7.08971 14.816 6.18884 14.4565 5.35243C14.097 4.51602 13.5709 3.76158 12.9103 3.1351C12.812 3.05532 12.6869 3.01585 12.5606 3.02468C12.4342 3.03351 12.3159 3.08997 12.2296 3.18266C12.1432 3.27535 12.0953 3.39736 12.0954 3.52404C12.0956 3.65071 12.1438 3.77261 12.2303 3.8651C12.7897 4.39878 13.235 5.04041 13.5392 5.75115C13.8435 6.46189 14.0003 7.22698 14.0003 8.0001C14.0003 8.77322 13.8435 9.53831 13.5392 10.2491C13.235 10.9598 12.7897 11.6014 12.2303 12.1351C12.1338 12.2254 12.077 12.3503 12.0723 12.4824C12.0676 12.6146 12.1155 12.7432 12.2053 12.8401C12.252 12.8904 12.3084 12.9305 12.3712 12.958C12.434 12.9856 12.5018 12.9999 12.5703 13.0001C12.6967 12.9997 12.8181 12.9514 12.9103 12.8651ZM9.00034 8.0001C9.00034 7.80232 8.9417 7.60898 8.83181 7.44453C8.72193 7.28008 8.56575 7.15191 8.38303 7.07622C8.2003 7.00054 7.99924 6.98073 7.80525 7.01932C7.61127 7.0579 7.43309 7.15314 7.29324 7.293C7.15339 7.43285 7.05814 7.61103 7.01956 7.80501C6.98097 7.99899 7.00078 8.20006 7.07646 8.38279C7.15215 8.56551 7.28032 8.72169 7.44477 8.83157C7.60922 8.94145 7.80256 9.0001 8.00034 9.0001C8.26556 9.0001 8.51991 8.89474 8.70745 8.70721C8.89499 8.51967 9.00034 8.26532 9.00034 8.0001Z" fill="#EE7B6F"/>
</svg>