<svg xmlns="http://www.w3.org/2000/svg" width="20" height="20" viewBox="0 0 20 20" fill="none">
  <g clip-path="url(#clip0_59_4297)">
    <path d="M19.5879 5.199C19.3574 4.34222 18.6819 3.66687 17.8252 3.43616C16.2602 3.00784 9.99981 3.00784 9.99981 3.00784C9.99981 3.00784 3.73961 3.00784 2.17452 3.41983C1.33438 3.65039 0.642392 4.34237 0.411833 5.199C0 6.76393 0 10.0095 0 10.0095C0 10.0095 0 13.2713 0.411833 14.8199C0.642545 15.6766 1.3179 16.3521 2.17467 16.5828C3.75609 17.0111 9.99996 17.0111 9.99996 17.0111C9.99996 17.0111 16.2602 17.0111 17.8252 16.5991C18.682 16.3685 19.3574 15.693 19.5881 14.8364C19.9999 13.2713 19.9999 10.0259 19.9999 10.0259C19.9999 10.0259 20.0164 6.76393 19.5879 5.199Z" fill="#FF0000"/>
    <path d="M8.00684 13.0078L13.2127 10.0094L8.00684 7.01111V13.0078Z" fill="white"/>
  </g>
  <defs>
    <clipPath id="clip0_59_4297">
      <rect width="20" height="20" fill="white"/>
    </clipPath>
  </defs>
</svg>