<svg width="20" height="20" viewBox="0 0 20 20" fill="none" xmlns="http://www.w3.org/2000/svg">
<g clip-path="url(#clip0_38_230)">
<path d="M12.9569 4.08961C13.1313 4.08496 13.2689 3.93988 13.2642 3.7655C13.2195 2.08293 14.5519 0.677535 16.2345 0.63273C17.0503 0.610934 17.8244 0.908082 18.4161 1.46906C19.0078 2.03004 19.3457 2.78793 19.3674 3.603C19.3891 4.41808 19.0921 5.19281 18.531 5.78453C17.97 6.37625 17.2122 6.71406 16.3971 6.73578C15.6296 6.75582 14.8862 6.48906 14.3076 5.98332C14.1762 5.86855 13.9768 5.88187 13.862 6.01324C13.7472 6.14453 13.7606 6.34402 13.8919 6.45879C14.5655 7.04746 15.4223 7.36839 16.3146 7.36839C16.3476 7.36839 16.3808 7.36793 16.4138 7.36707C17.3976 7.34089 18.3122 6.93316 18.9893 6.21906C19.6664 5.50496 20.0249 4.56988 19.9987 3.58617C19.9725 2.60246 19.5648 1.68777 18.8506 1.0107C18.1364 0.333668 17.2001 -0.0254335 16.2178 0.00140239C14.187 0.0554649 12.5789 1.7516 12.6329 3.78234C12.6376 3.95668 12.7836 4.09406 12.9569 4.08961Z" fill="black"/>
<path d="M16.5069 12.6366C15.6096 12.5899 14.7283 12.8717 14.0253 13.43C13.8888 13.5385 13.866 13.7371 13.9745 13.8737C14.0829 14.0103 14.2815 14.033 14.4182 13.9246C15.0004 13.462 15.7308 13.2287 16.474 13.2673C18.155 13.3546 19.4515 14.7932 19.3642 16.4741C19.322 17.2884 18.9651 18.0375 18.3594 18.5834C17.7537 19.1292 16.9719 19.4067 16.1574 19.3643C15.3431 19.3219 14.594 18.965 14.0481 18.3594C13.5022 17.7537 13.2249 16.9717 13.2672 16.1574C13.2762 15.9832 13.1424 15.8347 12.9682 15.8256C12.7958 15.8167 12.6455 15.9504 12.6364 16.1246C12.5854 17.1073 12.9201 18.0512 13.5789 18.7821C14.2378 19.5132 15.1418 19.9439 16.1246 19.9949C16.19 19.9983 16.2552 20 16.3202 20C17.232 20 18.0999 19.6674 18.7822 19.0525C19.5132 18.3936 19.9439 17.4896 19.995 16.5069C20.1004 14.4782 18.5356 12.7419 16.5069 12.6366Z" fill="black"/>
<path d="M16.3158 18.3157C17.4186 18.3157 18.3158 17.4185 18.3158 16.3157C18.3158 15.2129 17.4186 14.3157 16.3158 14.3157C15.6475 14.3157 15.0547 14.6453 14.6913 15.1504L5.5921 10.6008C5.65202 10.4111 5.68425 10.2093 5.68425 10C5.68425 9.79074 5.6519 9.58887 5.5921 9.39914L14.6913 4.84961C15.0546 5.35473 15.6475 5.68426 16.3158 5.68426C17.4186 5.68426 18.3158 4.78707 18.3158 3.68426C18.3158 2.58144 17.4186 1.6843 16.3158 1.6843C15.213 1.6843 14.3158 2.58148 14.3158 3.68426C14.3158 3.89351 14.3482 4.09531 14.408 4.28504L5.30882 8.83465C4.94546 8.32961 4.35261 8 3.68433 8C2.58155 8 1.68433 8.89723 1.68433 10C1.68433 11.1028 2.58155 12 3.68433 12C4.35272 12 4.9455 11.6704 5.30886 11.1653L14.408 15.7149C14.3481 15.9046 14.3158 16.1064 14.3158 16.3157C14.3158 17.4185 15.213 18.3157 16.3158 18.3157ZM16.3158 14.9473C17.0704 14.9473 17.6842 15.5612 17.6842 16.3157C17.6842 17.0703 17.0704 17.6841 16.3158 17.6841C15.5613 17.6841 14.9475 17.0703 14.9475 16.3157C14.9475 15.5612 15.5613 14.9473 16.3158 14.9473ZM16.3158 2.3159C17.0704 2.3159 17.6842 2.92976 17.6842 3.6843C17.6842 4.43883 17.0704 5.05273 16.3158 5.05273C15.5613 5.05273 14.9475 4.43883 14.9475 3.6843C14.9475 2.92973 15.5613 2.3159 16.3158 2.3159ZM3.68433 11.3684C2.92976 11.3684 2.31589 10.7545 2.31589 10C2.31589 9.24547 2.92976 8.63156 3.68433 8.63156C4.43886 8.63156 5.05272 9.24547 5.05272 10C5.05272 10.7545 4.43886 11.3684 3.68433 11.3684Z" fill="black"/>
<path d="M5.0491 12.7303C4.62223 12.9442 4.16305 13.0526 3.68422 13.0526C2.00098 13.0526 0.631602 11.6832 0.631602 10C0.631602 8.31681 2.00098 6.9474 3.68422 6.9474C4.16305 6.9474 4.62223 7.05583 5.04914 7.26966C5.20516 7.34787 5.39484 7.2847 5.47289 7.12876C5.55102 6.97287 5.48793 6.78306 5.33199 6.70498C4.81652 6.44673 4.26215 6.3158 3.68422 6.3158C1.6527 6.31583 0 7.96857 0 10C0 12.0315 1.65273 13.6842 3.68418 13.6842C4.26211 13.6842 4.81652 13.5533 5.33195 13.295C5.48785 13.2168 5.55094 13.0271 5.47285 12.8712C5.3948 12.7153 5.20508 12.6523 5.0491 12.7303Z" fill="black"/>
</g>
<defs>
<clipPath id="clip0_38_230">
<rect width="20" height="20" fill="white"/>
</clipPath>
</defs>
</svg>
