<svg xmlns="http://www.w3.org/2000/svg" viewBox="0 0 24 24" width="24" height="24"><path fill="#E60023" d="M12 0a12 12 0 0 0-4.37 23.17c-.1-.94-.2-2.38.04-3.4.22-.92 1.4-5.84 1.4-5.84s-.36-.72-.36-1.78c0-1.67.97-2.92 2.18-2.92 1.02 0 1.52.77 1.52 1.69 0 1.03-.66 2.57-1 4-.28 1.2.6 2.18 1.79 2.18 2.15 0 3.8-2.27 3.8-5.55 0-2.9-2.08-4.93-5.06-4.93-3.45 0-5.47 2.58-5.47 5.25 0 1.04.4 2.15.9 2.76.1.12.11.22.08.34l-.33 1.34c-.05.22-.17.27-.4.16-1.5-.7-2.43-2.88-2.43-4.64 0-3.78 2.74-7.25 7.92-7.25 4.16 0 7.4 2.96 7.4 6.93 0 4.13-2.61 7.46-6.24 7.46-1.22 0-2.36-.63-2.76-1.38l-.75 2.86c-.27 1.04-1 2.35-1.49 3.15A12 12 0 1 0 12 0z"/></svg>
