<svg width="800" height="800" viewBox="0 0 32 32" fill="none" xmlns="http://www.w3.org/2000/svg"><rect x="8" y="2" width="24" height="28" rx="2" fill="#2FB776"/><path d="M8 23h24v5a2 2 0 0 1-2 2H10a2 2 0 0 1-2-2z" fill="url(#a)"/><path fill="#229C5B" d="M20 16h12v7H20z"/><path fill="#27AE68" d="M20 9h12v7H20z"/><path d="M8 4a2 2 0 0 1 2-2h10v7H8z" fill="#1D854F"/><path fill="#197B43" d="M8 9h12v7H8z"/><path fill="#1B5B38" d="M8 16h12v7H8z"/><path d="M8 12a3 3 0 0 1 3-3h6a3 3 0 0 1 3 3v12a3 3 0 0 1-3 3H8z" fill="#000" fill-opacity=".3"/><rect y="7" width="18" height="18" rx="2" fill="url(#b)"/><path d="m13 21-2.818-5.1 2.694-4.9h-2.199l-1.663 3.129L7.378 11H5.11l2.708 4.9L5 21h2.2l1.773-3.314L10.732 21z" fill="#fff"/><defs><linearGradient id="a" x1="8" y1="26.5" x2="32" y2="26.5" gradientUnits="userSpaceOnUse"><stop stop-color="#163C27"/><stop offset="1" stop-color="#2A6043"/></linearGradient><linearGradient id="b" x1="0" y1="16" x2="18" y2="16" gradientUnits="userSpaceOnUse"><stop stop-color="#185A30"/><stop offset="1" stop-color="#176F3D"/></linearGradient></defs></svg>