<svg xmlns="http://www.w3.org/2000/svg" width="100" height="100" viewBox="0 0 48 48"><linearGradient id="a" x1="-209.942" x2="-179.36" y1="-3.055" y2="27.526" gradientTransform="translate(208.979 6.006)" gradientUnits="userSpaceOnUse"><stop offset="0" stop-color="#55adfd"/><stop offset="1" stop-color="#438ffd"/></linearGradient><path fill="url(#a)" d="M39.001 13.999v27a2 2 0 0 1-2 2h-26a2 2 0 0 1-2-2v-34a2 2 0 0 1 2-2h19l2 7z"/><path fill="#fff" fill-rule="evenodd" d="M15.999 18.001V21h17.002v-2.999zm.002 6V27h17.002v-2.999zm-.002 6V33H28v-2.999z" clip-rule="evenodd"/><linearGradient id="b" x1="-197.862" x2="-203.384" y1="-4.632" y2=".89" gradientTransform="translate(234.385 12.109)" gradientUnits="userSpaceOnUse"><stop offset="0" stop-color="#427fdb"/><stop offset="1" stop-color="#0c52bb"/></linearGradient><path fill="url(#b)" d="m30.001 13.999.001-9 8.999 8.999z"/></svg>