<svg width="800" height="800" viewBox="0 0 32 32" fill="none" xmlns="http://www.w3.org/2000/svg"><circle cx="17" cy="16" r="14" fill="url(#a)"/><mask id="b" style="mask-type:alpha" maskUnits="userSpaceOnUse" x="3" y="2" width="28" height="28"><circle cx="17" cy="16" r="14" fill="#C4C4C4"/></mask><g mask="url(#b)"><path fill="url(#c)" d="M18 0h17v17H18z"/><path d="M6 12a3 3 0 0 1 3-3h8a3 3 0 0 1 3 3v12a3 3 0 0 1-3 3H6z" fill="#000" fill-opacity=".3"/><path fill="#EB6C4D" d="M1 0h17v17H1z"/></g><rect y="7" width="18" height="18" rx="2" fill="url(#d)"/><path d="M13 14.457C13 12.3 11.58 11 9.328 11H6v10h2.066v-3.043h1.176c2.108 0 3.758-1.2 3.758-3.5m-2.094.043c0 .971-.617 1.6-1.621 1.6h-1.22v-3.229H9.27c1.005 0 1.636.529 1.636 1.629" fill="#fff"/><defs><linearGradient id="a" x1="3" y1="17.931" x2="31" y2="17.931" gradientUnits="userSpaceOnUse"><stop stop-color="#A73A24"/><stop offset="1" stop-color="#F75936"/></linearGradient><linearGradient id="c" x1="31.5" y1="10" x2="18" y2="10" gradientUnits="userSpaceOnUse"><stop stop-color="#FDB8A3"/><stop offset="1" stop-color="#F1876D"/></linearGradient><linearGradient id="d" x1="0" y1="17.241" x2="18" y2="17.241" gradientUnits="userSpaceOnUse"><stop stop-color="#A73A24"/><stop offset="1" stop-color="#F75936"/></linearGradient></defs></svg>