<svg width="209" height="50" viewBox="0 0 209 50" fill="none" xmlns="http://www.w3.org/2000/svg">
<path d="M2.50199 0.988739H0.219482V9.88466H2.50199V0.988739Z" fill="#988FBD"/>
<path d="M0.220215 1.00942L0.220215 3.29193L9.11614 3.29193L9.11614 1.00942L0.220215 1.00942Z" fill="#988FBD"/>
<path d="M45.9524 49.0112L48.2349 49.0112L48.2349 40.1153L45.9524 40.1153L45.9524 49.0112Z" fill="#988FBD"/>
<path d="M48.2349 49.0039L48.2349 46.7214L39.339 46.7214L39.339 49.0039L48.2349 49.0039Z" fill="#988FBD"/>
<path d="M18.5993 21.7655L14.9707 20.712L11.8103 29.842C11.6932 30.1347 11.8688 30.4273 12.1029 30.4858L15.5559 31.5978C15.79 31.6563 16.0827 31.5393 16.1997 31.3052L19.1845 22.8775C19.3016 22.3507 19.0675 21.8825 18.5993 21.7655Z" fill="#5B4E96"/>
<path d="M10.8173 44.0052C7.01317 43.5955 3.67719 41.313 1.80437 38.0356C0.282696 35.2849 -0.0684562 32.066 0.750905 29.0226C1.62879 25.9793 3.61867 23.4041 6.42791 21.8825C6.66202 21.7654 6.89612 21.6484 7.13022 21.5313C9.1201 20.5949 11.4026 20.1852 13.6266 20.4778C14.2704 20.5364 14.8556 20.6534 15.4409 20.829L18.5428 21.7654C19.011 21.8825 19.2451 22.4092 19.0695 22.8189L17.4893 27.2668L14.0363 26.1549C13.6851 26.0378 13.2754 25.9793 12.9243 25.9208C11.6952 25.8037 10.5247 25.9793 9.41272 26.506C9.29567 26.5645 9.17863 26.6231 9.06157 26.6816C7.59843 27.5009 6.48643 28.847 6.01822 30.4858C5.55002 32.1245 5.7256 33.8217 6.54496 35.3434C7.5399 37.0992 9.3542 38.3282 11.4026 38.5623C12.5731 38.6794 13.8022 38.5038 14.8556 37.9771C14.9727 37.9185 15.0897 37.86 15.2068 37.8015C16.6114 37.0406 17.7234 35.636 18.2501 33.9973L24.7465 15.5032C25.5658 12.5769 27.6143 10.0602 30.365 8.53858C30.5991 8.42153 30.8332 8.30448 31.0673 8.18743C33.0572 7.25102 35.3397 6.84133 37.5051 7.13396C41.3093 7.54364 44.6453 9.82615 46.5181 13.1036C49.6785 18.7806 47.6301 26.0378 41.8946 29.2567C41.6604 29.3738 41.4263 29.4908 41.1922 29.6079C39.2024 30.5443 36.9784 30.954 34.7544 30.6613C34.1106 30.6028 33.5254 30.4858 32.9401 30.3102L30.482 29.6079C30.2479 29.5493 30.1309 29.3152 30.1894 29.0811L31.7696 24.6917C31.8281 24.4576 32.0622 24.3406 32.2963 24.3991L34.2862 24.9843H34.3447C34.6959 25.1014 35.047 25.1599 35.4567 25.2184C36.6858 25.3355 37.8563 25.1599 38.9683 24.6332C39.0853 24.5747 39.2024 24.5161 39.3194 24.4576C42.4213 22.7604 43.5333 18.8391 41.836 15.7958C40.8411 14.04 39.0268 12.811 36.9784 12.5769C35.8079 12.4598 34.5788 12.6354 33.5254 13.1621C33.4083 13.2206 33.2913 13.2792 33.1742 13.3377C31.8281 14.0985 30.8917 15.2691 30.1309 17.1419V17.2004L23.6345 35.636C22.7566 38.5623 20.7082 41.0789 18.016 42.6006C17.7819 42.7177 17.5478 42.8347 17.3137 42.9518C15.2653 43.8882 13.0413 44.2979 10.8173 44.0052Z" fill="#5B4E96"/>
<path d="M69.313 33.1938V16.4554H81.1352V19.6158H72.8831V23.1273H80.9596V26.2877H72.8831V30.0919H81.1352V33.2523H69.313V33.1938Z" fill="#474559"/>
<path d="M98.9232 33.1938V25.5269C98.9232 24.4149 98.3965 23.5955 97.1089 23.5955C95.9969 23.5955 95.0605 24.3564 94.5923 25.0002V33.1938H91.3734V25.5269C91.3734 24.4149 90.8467 23.5955 89.5591 23.5955C88.4471 23.5955 87.5107 24.3564 87.0425 25.0002V33.1938H83.8821V21.0789H87.0425V22.6591C87.5692 21.9568 89.1494 20.7863 91.0222 20.7863C92.778 20.7863 93.9485 21.6057 94.3582 22.9517C95.0605 21.8983 96.6407 20.7863 98.5135 20.7863C100.738 20.7863 102.084 21.9568 102.084 24.4734V33.2523H98.9232V33.1938Z" fill="#474559"/>
<path d="M105.246 33.1936V16.4552H108.406V22.6004C109.343 21.3714 110.689 20.7276 112.152 20.7276C115.254 20.7276 117.536 23.1271 117.536 27.0484C117.536 31.0867 115.254 33.4277 112.152 33.4277C110.689 33.4277 109.343 32.7839 108.406 31.5549V33.1351H105.246V33.1936ZM111.215 30.6184C113.03 30.6184 114.259 29.2138 114.259 27.1069C114.259 25 113.03 23.5953 111.215 23.5953C110.162 23.5953 108.991 24.1806 108.465 25V29.2723C108.991 30.0917 110.162 30.6184 111.215 30.6184Z" fill="#474559"/>
<path d="M119.173 27.1068C119.173 23.5953 121.807 20.786 125.436 20.786C129.064 20.786 131.522 23.4782 131.522 27.458V28.2188H122.509C122.744 29.682 123.914 30.911 126.021 30.911C127.074 30.911 128.479 30.5013 129.24 29.7405L130.645 31.8474C129.415 32.9594 127.543 33.5447 125.67 33.5447C121.983 33.4861 119.173 30.9695 119.173 27.1068ZM125.436 23.3612C123.446 23.3612 122.626 24.7658 122.451 25.9363H128.421C128.362 24.8243 127.601 23.3612 125.436 23.3612Z" fill="#474559"/>
<path d="M142.175 33.1936V31.6134C141.239 32.8425 139.893 33.4862 138.43 33.4862C135.386 33.4862 133.045 31.2037 133.045 27.1069C133.045 23.1857 135.328 20.7861 138.43 20.7861C139.834 20.7861 141.239 21.3714 142.175 22.659V16.5138H145.394V33.2521H142.175V33.1936ZM142.175 29.2724V25C141.649 24.1806 140.478 23.5954 139.425 23.5954C137.61 23.5954 136.323 25 136.323 27.1069C136.323 29.2139 137.552 30.6185 139.425 30.6185C140.478 30.6185 141.649 30.0917 142.175 29.2724Z" fill="#474559"/>
<path d="M148.612 33.1935V16.4551H156.454C160.083 16.4551 162.072 18.9132 162.072 21.8395C162.072 24.7658 160.083 27.2239 156.454 27.2239H152.182V33.1935H148.612ZM158.444 21.8395C158.444 20.4349 157.39 19.557 155.986 19.557H152.24V24.0635H155.986C157.332 24.0635 158.444 23.2441 158.444 21.8395Z" fill="#474559"/>
<path d="M164.248 33.1939V21.079H167.409V22.7178C168.287 21.6643 169.75 20.7864 171.271 20.7864V23.8883C171.037 23.8298 170.745 23.8298 170.393 23.8298C169.34 23.8298 167.935 24.415 167.409 25.2344V33.2524H164.248V33.1939Z" fill="#474559"/>
<path d="M172.494 27.1071C172.494 23.5956 175.127 20.7863 178.756 20.7863C182.385 20.7863 184.843 23.4785 184.843 27.4583V28.2191H175.83C176.064 29.6822 177.234 30.9113 179.341 30.9113C180.395 30.9113 181.799 30.5016 182.56 29.7408L183.965 31.8477C182.736 32.9597 180.863 33.5449 178.99 33.5449C175.244 33.4864 172.494 30.9698 172.494 27.1071ZM178.756 23.3615C176.766 23.3615 175.947 24.7661 175.771 25.9366H181.741C181.682 24.8246 180.863 23.3615 178.756 23.3615Z" fill="#474559"/>
<path d="M186.07 31.6133L187.474 29.3308C188.352 30.2087 190.166 31.0281 191.688 31.0281C193.093 31.0281 193.736 30.5013 193.736 29.7405C193.736 27.7506 186.538 29.3893 186.538 24.6488C186.538 22.6003 188.294 20.8446 191.512 20.8446C193.561 20.8446 195.2 21.5469 196.37 22.4833L195.083 24.7658C194.38 24.005 192.976 23.3612 191.512 23.3612C190.342 23.3612 189.581 23.8879 189.581 24.5317C189.581 26.2875 196.78 24.8243 196.78 29.682C196.78 31.906 194.848 33.5447 191.512 33.5447C189.406 33.4861 187.357 32.7838 186.07 31.6133Z" fill="#474559"/>
<path d="M198.07 31.6135L199.475 29.331C200.353 30.2089 202.167 31.0282 203.689 31.0282C205.093 31.0282 205.737 30.5015 205.737 29.7406C205.737 27.7508 198.538 29.3895 198.538 24.6489C198.538 22.6005 200.294 20.8447 203.513 20.8447C205.562 20.8447 207.2 21.547 208.371 22.4835L207.083 24.766C206.381 24.0051 204.976 23.3613 203.513 23.3613C202.343 23.3613 201.582 23.8881 201.582 24.5319C201.582 26.2876 208.78 24.8245 208.78 29.6821C208.78 31.9061 206.849 33.5448 203.513 33.5448C201.348 33.4863 199.358 32.784 198.07 31.6135Z" fill="#474559"/>
</svg>
