<svg width="231" height="54" viewBox="0 0 231 54" fill="none" xmlns="http://www.w3.org/2000/svg">
<path d="M2.94362 0.56189H0.43042V10.3569H2.94362V0.56189Z" fill="white"/>
<path d="M0.43103 0.584636L0.43103 3.09784L10.2261 3.09784L10.2261 0.584636L0.43103 0.584636Z" fill="white"/>
<path d="M50.7941 53.4381L53.3073 53.4381L53.3073 43.6431L50.7941 43.6431L50.7941 53.4381Z" fill="white"/>
<path d="M53.3073 53.4301L53.3073 50.9169L43.5123 50.9169L43.5123 53.4301L53.3073 53.4301Z" fill="white"/>
<path d="M20.6649 23.4385L16.6695 22.2785L13.1897 32.3313C13.0608 32.6536 13.2541 32.9758 13.5119 33.0402L17.3139 34.2646C17.5717 34.329 17.8939 34.2001 18.0228 33.9424L21.3093 24.6629C21.4382 24.0829 21.1804 23.5674 20.6649 23.4385Z" fill="white"/>
<path d="M12.0943 47.9261C7.90559 47.475 4.23244 44.9618 2.17032 41.3531C0.494854 38.3244 0.108211 34.7801 1.01039 31.4292C1.977 28.0782 4.168 25.2428 7.26117 23.5673C7.51894 23.4385 7.7767 23.3096 8.03447 23.1807C10.2255 22.1496 12.7387 21.6986 15.1874 22.0208C15.8963 22.0852 16.5407 22.2141 17.1851 22.4074L20.6005 23.4385C21.116 23.5673 21.3738 24.1473 21.1804 24.5984L19.4405 29.4959L15.6385 28.2715C15.2519 28.1427 14.8008 28.0782 14.4141 28.0138C13.0609 27.8849 11.772 28.0782 10.5477 28.6582C10.4188 28.7226 10.2899 28.7871 10.161 28.8515C8.55 29.7537 7.32561 31.2358 6.81008 33.0402C6.29455 34.8445 6.48788 36.7133 7.39006 38.3888C8.48555 40.322 10.4832 41.6753 12.7387 41.9331C14.0275 42.0619 15.3807 41.8686 16.5407 41.2886C16.6696 41.2242 16.7985 41.1598 16.9273 41.0953C18.4739 40.2576 19.6983 38.711 20.2783 36.9066L27.4312 16.5433C28.3334 13.3212 30.5888 10.5502 33.6176 8.87477C33.8753 8.74589 34.1331 8.61701 34.3909 8.48813C36.5819 7.45707 39.0951 7.00598 41.4794 7.32819C45.6681 7.77927 49.3412 10.2925 51.4033 13.9012C54.8831 20.152 52.6277 28.1427 46.3125 31.6869C46.0547 31.8158 45.7969 31.9447 45.5392 32.0736C43.3482 33.1046 40.8994 33.5557 38.4507 33.2335C37.7418 33.1691 37.0974 33.0402 36.453 32.8469L33.7465 32.0736C33.4887 32.0091 33.3598 31.7514 33.4243 31.4936L35.1642 26.6605C35.2286 26.4028 35.4864 26.2739 35.7441 26.3383L37.9351 26.9827H37.9996C38.3862 27.1116 38.7729 27.176 39.2239 27.2405C40.5772 27.3694 41.866 27.176 43.0904 26.5961C43.2193 26.5316 43.3482 26.4672 43.4771 26.4028C46.8924 24.534 48.1168 20.2164 46.248 16.8655C45.1525 14.9322 43.1549 13.579 40.8994 13.3212C39.6106 13.1923 38.2573 13.3857 37.0974 13.9656C36.9685 14.0301 36.8396 14.0945 36.7108 14.1589C35.2286 14.9967 34.1976 16.2855 33.3598 18.3476V18.4121L26.2069 38.711C25.2402 41.9331 22.9848 44.704 20.0205 46.3795C19.7627 46.5084 19.505 46.6373 19.2472 46.7661C16.9918 47.7972 14.543 48.2483 12.0943 47.9261Z" fill="white"/>
<path d="M76.5064 36.0218V17.5916H89.5235V21.0714H80.4373V24.9379H89.3302V28.4177H80.4373V32.6064H89.5235V36.0862H76.5064V36.0218Z" fill="white"/>
<path d="M109.114 36.0217V27.58C109.114 26.3556 108.534 25.4534 107.116 25.4534C105.892 25.4534 104.861 26.2911 104.345 27V36.0217H100.801V27.58C100.801 26.3556 100.221 25.4534 98.8033 25.4534C97.5789 25.4534 96.5478 26.2911 96.0323 27V36.0217H92.5525V22.6824H96.0323V24.4224C96.6123 23.6491 98.3522 22.3602 100.414 22.3602C102.348 22.3602 103.636 23.2624 104.087 24.7446C104.861 23.5846 106.601 22.3602 108.663 22.3602C111.112 22.3602 112.594 23.6491 112.594 26.42V36.0862H109.114V36.0217Z" fill="white"/>
<path d="M116.073 36.0218V17.5916H119.553V24.3579C120.584 23.0047 122.066 22.2958 123.678 22.2958C127.093 22.2958 129.606 24.9379 129.606 29.2555C129.606 33.7019 127.093 36.2795 123.678 36.2795C122.066 36.2795 120.584 35.5707 119.553 34.2174V35.9573H116.073V36.0218ZM122.646 33.1864C124.644 33.1864 125.997 31.6398 125.997 29.3199C125.997 27 124.644 25.4534 122.646 25.4534C121.487 25.4534 120.198 26.0978 119.618 27V31.7042C120.198 32.6064 121.487 33.1864 122.646 33.1864Z" fill="white"/>
<path d="M131.41 29.3199C131.41 25.4534 134.31 22.3602 138.306 22.3602C142.301 22.3602 145.007 25.3245 145.007 29.7065V30.5443H135.084C135.341 32.1553 136.63 33.5085 138.95 33.5085C140.11 33.5085 141.657 33.0575 142.494 32.2197L144.041 34.5396C142.688 35.764 140.625 36.4084 138.563 36.4084C134.504 36.3439 131.41 33.573 131.41 29.3199ZM138.306 25.1956C136.115 25.1956 135.212 26.7422 135.019 28.031H141.592C141.528 26.8067 140.69 25.1956 138.306 25.1956Z" fill="white"/>
<path d="M156.736 36.0217V34.2818C155.705 35.6351 154.223 36.344 152.612 36.344C149.261 36.344 146.683 33.8307 146.683 29.3199C146.683 25.0023 149.196 22.3602 152.612 22.3602C154.158 22.3602 155.705 23.0046 156.736 24.4224V17.656H160.28V36.0862H156.736V36.0217ZM156.736 31.7042V27C156.156 26.0978 154.867 25.4534 153.707 25.4534C151.709 25.4534 150.292 27 150.292 29.3199C150.292 31.6397 151.645 33.1863 153.707 33.1863C154.867 33.1863 156.156 32.6064 156.736 31.7042Z" fill="white"/>
<path d="M163.824 36.0218V17.5916H172.459C176.455 17.5916 178.646 20.2981 178.646 23.5202C178.646 26.7422 176.455 29.4488 172.459 29.4488H167.755V36.0218H163.824ZM174.65 23.5202C174.65 21.9736 173.49 21.007 171.944 21.007H167.819V25.969H171.944C173.426 25.969 174.65 25.0668 174.65 23.5202Z" fill="white"/>
<path d="M181.03 36.0217V22.6824H184.51V24.4868C185.476 23.3268 187.087 22.3602 188.763 22.3602V25.7756C188.505 25.7112 188.183 25.7112 187.796 25.7112C186.636 25.7112 185.09 26.3556 184.51 27.2578V36.0862H181.03V36.0217Z" fill="white"/>
<path d="M190.116 29.3199C190.116 25.4534 193.016 22.3602 197.011 22.3602C201.006 22.3602 203.713 25.3245 203.713 29.7065V30.5443H193.789C194.047 32.1553 195.336 33.5085 197.656 33.5085C198.815 33.5085 200.362 33.0575 201.2 32.2197L202.746 34.5396C201.393 35.764 199.331 36.4084 197.269 36.4084C193.145 36.3439 190.116 33.573 190.116 29.3199ZM197.011 25.1956C194.82 25.1956 193.918 26.7422 193.725 28.031H200.298C200.233 26.8067 199.331 25.1956 197.011 25.1956Z" fill="white"/>
<path d="M205.066 34.2819L206.613 31.7687C207.58 32.7353 209.577 33.6375 211.253 33.6375C212.799 33.6375 213.508 33.0575 213.508 32.2198C213.508 30.0288 205.582 31.8331 205.582 26.6134C205.582 24.3579 207.515 22.4247 211.059 22.4247C213.315 22.4247 215.119 23.198 216.408 24.2291L214.99 26.7423C214.217 25.9045 212.67 25.1957 211.059 25.1957C209.771 25.1957 208.933 25.7757 208.933 26.4845C208.933 28.4177 216.859 26.8067 216.859 32.1553C216.859 34.6041 214.733 36.4084 211.059 36.4084C208.74 36.344 206.484 35.5707 205.066 34.2819Z" fill="white"/>
<path d="M218.277 34.2819L219.823 31.7687C220.79 32.7353 222.788 33.6375 224.463 33.6375C226.01 33.6375 226.719 33.0575 226.719 32.2198C226.719 30.0288 218.792 31.8331 218.792 26.6134C218.792 24.3579 220.726 22.4247 224.27 22.4247C226.525 22.4247 228.33 23.198 229.618 24.2291L228.201 26.7423C227.427 25.9045 225.881 25.1957 224.27 25.1957C222.981 25.1957 222.143 25.7757 222.143 26.4845C222.143 28.4177 230.07 26.8067 230.07 32.1553C230.07 34.6041 227.943 36.4084 224.27 36.4084C221.886 36.344 219.695 35.5707 218.277 34.2819Z" fill="white"/>
</svg>
