<svg xmlns="http://www.w3.org/2000/svg" width="16" height="16" viewBox="0 0 16 16" fill="none">
  <g clip-path="url(#clip0_59_5806)">
    <path fill-rule="evenodd" clip-rule="evenodd" d="M8 15.2C11.9764 15.2 15.2 11.9765 15.2 8C15.2 4.02355 11.9765 0.799983 8 0.799983C4.02355 0.799983 0.799983 4.02355 0.799983 8C0.799983 11.9764 4.02355 15.2 8 15.2ZM8 16C12.4182 16 16 12.4182 16 8C16 3.58169 12.4182 0 8 0C3.58169 0 0 3.58169 0 8C0 12.4182 3.58169 16 8 16Z" fill="#EE7B6F"/>
    <path fill-rule="evenodd" clip-rule="evenodd" d="M10.0785 8.00001L6.39968 5.54746V10.4526L10.0785 8.00001ZM10.8218 7.53408C11.1543 7.75578 11.1543 8.24433 10.8218 8.46602L6.47025 11.3671C6.09812 11.6152 5.59961 11.3484 5.59961 10.9011V5.09901C5.59961 4.65175 6.09812 4.38497 6.47025 4.63309L10.8218 7.53408Z" fill="#EE7B6F"/>
  </g>
  <defs>
    <clipPath id="clip0_59_5806">
      <rect width="16" height="16" fill="#EE7B6F"/>
    </clipPath>
  </defs>
</svg>