<?xml version="1.0" encoding="iso-8859-1"?>
<!-- Generator: Adobe Illustrator 19.0.0, SVG Export Plug-In . SVG Version: 6.00 Build 0)  -->
<svg version="1.1" id="Capa_1" xmlns="http://www.w3.org/2000/svg" xmlns:xlink="http://www.w3.org/1999/xlink" x="0px" y="0px"
	 viewBox="0 0 512 512" style="enable-background:new 0 0 512 512;" xml:space="preserve">
<path style="fill:#BABABA;" d="M447.547,90.086c0-18.115-14.687-32.8-32.802-32.8h-21.35c-13.209,0-274.3,0-283.027,0
	c-7.995,0-59.709,0-70.083,0c-18.112,0-32.8,14.685-32.8,32.8v374.458c0,9.375,3.941,17.826,10.247,23.804h397.014v8.997h57.455
	c14.117,0,26.15-8.919,30.775-21.43C506.808,465.785,508.164,485.152,447.547,90.086z"/>
<path style="fill:#A8A8A8;" d="M467.577,464.545V220.632l-20.03-130.546c0-18.115-14.687-32.8-32.802-32.8
	c-10.74,0-269.391,0-284.347,0h-20.03h-8.012c-18.554,0-12.312,0-42.041,0c-18.113,0-32.801,14.685-32.801,32.8v374.458
	c0,9.375,3.941,17.826,10.247,23.804h376.984v8.997h20.03C452.89,497.347,467.577,482.661,467.577,464.545z"/>
<path style="fill:#E6E6E6;" d="M414.746,57.286c-11.478,0-285.475,0-304.377,0c-11.317,0-62.432,0-70.083,0
	c-18.113,0-32.801,14.685-32.801,32.8v374.458c0,18.116,14.688,32.801,32.801,32.801h374.459c18.115,0,32.802-14.685,32.802-32.801
	V90.086C447.547,71.971,432.86,57.286,414.746,57.286z"/>
<path style="fill:#CCCBCA;" d="M27.515,464.545V90.086c0-18.115,14.688-32.8,32.801-32.8c-11.29,0-8.704,0-20.03,0
	c-18.113,0-32.801,14.685-32.801,32.8v374.458c0,18.116,14.688,32.801,32.801,32.801h20.03
	C42.203,497.347,27.515,482.661,27.515,464.545z"/>
<path style="fill:#EA473B;" d="M414.746,57.286c-13.031,0-282.627,0-304.377,0c-77.657,0,2.612,0-70.083,0
	c-18.113,0-32.801,14.685-32.801,32.8v84.257h440.062V90.086C447.547,71.971,432.86,57.286,414.746,57.286z"/>
<path style="fill:#D63322;" d="M27.515,90.086c0-18.115,14.688-32.8,32.801-32.8c-11.29,0-8.704,0-20.03,0
	c-18.113,0-32.801,14.685-32.801,32.8v84.257h20.03C27.515,174.344,27.515,90.086,27.515,90.086z"/>
<g>
	<path style="fill:#414356;" d="M358.741,86.611v6.828c0,6.638-5.38,7.01-12.018,7.01h-4.006c-6.637,0-12.018-0.373-12.018-7.01
		v-6.827c-6.355,4.435-10.516,11.795-10.516,20.131c0,13.551,10.986,24.537,24.537,24.537
		C368.752,131.28,378.299,100.261,358.741,86.611z"/>
	<path style="fill:#414356;" d="M234.555,86.611v6.828c0,6.638-5.38,6.009-12.018,6.009h-4.006c-6.637,0-12.018,0.629-12.018-6.009
		v-6.827c-6.355,4.435-10.516,11.795-10.516,20.131c0,13.551,10.986,24.537,24.537,24.537c13.551,0,24.537-10.985,24.537-24.537
		C245.071,98.406,240.909,91.046,234.555,86.611z"/>
	<path style="fill:#414356;" d="M110.369,86.611v6.828c0,7.74-7.284,7.01-16.024,7.01c-6.637,0-12.018-0.373-12.018-7.01v-6.827
		c-19.577,13.662-9.981,44.668,14.021,44.668c13.551,0,24.537-10.985,24.537-24.537C120.885,98.406,116.723,91.046,110.369,86.611z"
		/>
</g>
<g>
	<path style="fill:#2F3242;" d="M341.215,106.743c0-0.465,0.018-0.924,0.043-1.383c-5.948-0.721-10.559-5.778-10.559-11.921v-6.827
		c-6.355,4.435-10.516,11.795-10.516,20.131c0,13.551,10.986,24.537,24.537,24.537c3.764,0,7.328-0.85,10.516-2.365
		C346.947,124.977,341.215,116.531,341.215,106.743z"/>
	<path style="fill:#2F3242;" d="M217.029,106.743c0-0.465,0.018-0.924,0.043-1.383c-5.948-0.721-10.559-5.778-10.559-11.921v-6.827
		c-6.355,4.435-10.516,11.795-10.516,20.131c0,13.551,10.986,24.537,24.537,24.537c3.764,0,7.328-0.85,10.516-2.365
		C222.761,124.977,217.029,116.531,217.029,106.743z"/>
	<path style="fill:#2F3242;" d="M92.886,105.36c-5.947-0.721-10.559-5.778-10.559-11.921v-6.827
		c-6.355,4.435-10.516,11.795-10.516,20.131c0,18.071,18.875,29.86,35.053,22.172C98.074,124.738,92.316,115.609,92.886,105.36z"/>
</g>
<rect x="7.485" y="174.342" style="fill:#F77C79;" width="440.059" height="28.042"/>
<rect x="7.485" y="174.342" style="fill:#DD6464;" width="20.03" height="28.042"/>
<path id="SVGCleanerId_0" style="fill:#585A60;" d="M98.351,14.654c6.638,0,12.018,5.381,12.018,12.018v66.767
	c0,6.638-5.38,12.018-12.018,12.018h-4.006c-6.637,0-12.018-5.38-12.018-12.018V26.672c0-6.637,5.381-12.018,12.018-12.018H98.351z"
	/>
<path id="SVGCleanerId_1" style="fill:#585A60;" d="M222.537,14.654c6.638,0,12.018,5.381,12.018,12.018v66.767
	c0,6.638-5.38,12.018-12.018,12.018h-4.006c-6.637,0-12.018-5.38-12.018-12.018V26.672c0-6.637,5.381-12.018,12.018-12.018H222.537z
	"/>
<path id="SVGCleanerId_2" style="fill:#585A60;" d="M346.723,14.654c6.638,0,12.018,5.381,12.018,12.018v66.767
	c0,6.638-5.38,12.018-12.018,12.018h-4.006c-6.637,0-12.018-5.38-12.018-12.018V26.672c0-6.637,5.381-12.018,12.018-12.018H346.723z
	"/>
<g>
	<path id="SVGCleanerId_0_1_" style="fill:#585A60;" d="M98.351,14.654c6.638,0,12.018,5.381,12.018,12.018v66.767
		c0,6.638-5.38,12.018-12.018,12.018h-4.006c-6.637,0-12.018-5.38-12.018-12.018V26.672c0-6.637,5.381-12.018,12.018-12.018H98.351z
		"/>
</g>
<g>
	<path id="SVGCleanerId_1_1_" style="fill:#585A60;" d="M222.537,14.654c6.638,0,12.018,5.381,12.018,12.018v66.767
		c0,6.638-5.38,12.018-12.018,12.018h-4.006c-6.637,0-12.018-5.38-12.018-12.018V26.672c0-6.637,5.381-12.018,12.018-12.018H222.537
		z"/>
</g>
<g>
	<path id="SVGCleanerId_2_1_" style="fill:#585A60;" d="M346.723,14.654c6.638,0,12.018,5.381,12.018,12.018v66.767
		c0,6.638-5.38,12.018-12.018,12.018h-4.006c-6.637,0-12.018-5.38-12.018-12.018V26.672c0-6.637,5.381-12.018,12.018-12.018H346.723
		z"/>
</g>
<g>
	<path style="fill:#414356;" d="M96.348,93.439V26.672c0-4.847,2.877-9.015,7.01-10.914c-1.525-0.701-3.218-1.104-5.007-1.104
		h-4.006c-6.637,0-12.018,5.381-12.018,12.018v66.767c0,6.638,5.381,12.018,12.018,12.018h4.006c1.79,0,3.482-0.402,5.007-1.104
		C99.225,102.454,96.348,98.288,96.348,93.439z"/>
	<path style="fill:#414356;" d="M220.534,93.439V26.672c0-4.847,2.877-9.015,7.01-10.914c-1.525-0.701-3.218-1.104-5.008-1.104
		h-4.006c-6.637,0-12.018,5.381-12.018,12.018v66.767c0,6.638,5.381,12.018,12.018,12.018h4.006c1.79,0,3.482-0.402,5.008-1.104
		C223.411,102.454,220.534,98.288,220.534,93.439z"/>
	<path style="fill:#414356;" d="M344.72,93.439V26.672c0-4.847,2.877-9.015,7.01-10.914c-1.525-0.701-3.218-1.104-5.008-1.104
		h-4.006c-6.637,0-12.018,5.381-12.018,12.018v66.767c0,6.638,5.381,12.018,12.018,12.018h4.006c1.79,0,3.482-0.402,5.008-1.104
		C347.597,102.454,344.72,98.288,344.72,93.439z"/>
</g>
<path d="M454.71,84.669c-2.656-19.771-19.638-34.894-39.939-34.894h-48.494V26.672c0-10.768-8.761-19.529-19.529-19.529h-4.006
	c-10.769,0-19.529,8.761-19.529,19.529v23.103h-81.122V26.672c0-10.768-8.761-19.529-19.529-19.529h-4.006
	c-10.769,0-19.529,8.761-19.529,19.529v23.103h-81.122V26.672c0-10.768-8.761-19.529-19.529-19.529H94.37
	c-10.769,0-19.529,8.761-19.529,19.529v23.103H40.312C18.084,49.775,0,67.859,0,90.086c0,11.446,0,368.778,0,374.458
	c0,22.228,18.084,40.312,40.312,40.312c6.67,0,424.096,0,431.915,0c16.799,0,31.998-10.584,37.8-26.283
	c0.79-2.09,3.207-9.93,1.186-23.244C509.261,441.532,460.023,123.889,454.71,84.669z M361.752,105.928
	c0.013,0.271,0.02,0.542,0.02,0.814c0,9.388-7.637,17.026-17.026,17.026c-9.388,0-17.025-7.637-17.025-17.026
	c0-0.272,0.006-0.544,0.02-0.814c0.346,0.415,0.713,0.81,1.091,1.194c0.062,0.063,0.123,0.127,0.186,0.189
	c0.385,0.382,0.787,0.745,1.203,1.093c0.076,0.064,0.152,0.126,0.229,0.189c0.422,0.344,0.857,0.671,1.308,0.978
	c0.069,0.047,0.14,0.092,0.21,0.138c0.473,0.313,0.956,0.613,1.456,0.885c0.026,0.014,0.053,0.026,0.079,0.041
	c0.498,0.268,1.009,0.514,1.532,0.739c0.056,0.024,0.11,0.05,0.166,0.074c0.518,0.217,1.049,0.409,1.587,0.582
	c0.09,0.029,0.179,0.059,0.27,0.086c0.531,0.162,1.072,0.3,1.621,0.418c0.097,0.021,0.194,0.04,0.292,0.059
	c0.559,0.11,1.125,0.199,1.7,0.26c0.076,0.008,0.152,0.012,0.228,0.02c0.608,0.057,1.221,0.093,1.843,0.093h4.006
	c0.622,0,1.235-0.036,1.843-0.093c0.076-0.007,0.153-0.011,0.228-0.02c0.575-0.061,1.141-0.15,1.7-0.26
	c0.098-0.019,0.195-0.038,0.292-0.059c0.55-0.117,1.091-0.255,1.621-0.418c0.09-0.028,0.18-0.058,0.27-0.086
	c0.539-0.173,1.07-0.365,1.587-0.582c0.056-0.024,0.11-0.05,0.166-0.074c0.523-0.225,1.035-0.471,1.532-0.739
	c0.026-0.014,0.053-0.026,0.079-0.041c0.501-0.272,0.983-0.572,1.456-0.885c0.07-0.046,0.141-0.091,0.21-0.138
	c0.451-0.307,0.885-0.635,1.308-0.978c0.077-0.063,0.153-0.125,0.229-0.189c0.416-0.349,0.817-0.711,1.203-1.093
	c0.063-0.062,0.124-0.126,0.186-0.189C361.039,106.738,361.406,106.343,361.752,105.928z M338.236,26.672
	c0-2.485,2.021-4.507,4.507-4.507h4.006c2.485,0,4.507,2.022,4.507,4.507v30.614v29.325v6.828c0,2.485-2.022,4.507-4.507,4.507
	h-4.006c-2.486,0-4.507-2.022-4.507-4.507v-6.827V57.286V26.672z M237.566,105.928c0.013,0.271,0.02,0.542,0.02,0.814
	c0,9.388-7.637,17.026-17.026,17.026s-17.025-7.637-17.025-17.026c0-0.272,0.006-0.544,0.019-0.814
	c0.346,0.415,0.713,0.81,1.091,1.194c0.062,0.063,0.123,0.127,0.186,0.189c0.385,0.382,0.787,0.745,1.203,1.093
	c0.076,0.064,0.152,0.126,0.229,0.189c0.422,0.344,0.857,0.671,1.308,0.978c0.069,0.047,0.14,0.092,0.21,0.138
	c0.473,0.313,0.956,0.613,1.456,0.885c0.026,0.014,0.053,0.026,0.079,0.041c0.498,0.268,1.01,0.514,1.532,0.739
	c0.056,0.024,0.11,0.05,0.166,0.074c0.518,0.217,1.049,0.409,1.587,0.582c0.09,0.029,0.179,0.059,0.27,0.086
	c0.531,0.162,1.072,0.3,1.621,0.418c0.097,0.021,0.194,0.04,0.292,0.059c0.559,0.11,1.125,0.199,1.7,0.26
	c0.076,0.008,0.152,0.012,0.229,0.02c0.607,0.057,1.221,0.093,1.843,0.093h4.006c0.622,0,1.235-0.036,1.843-0.093
	c0.076-0.007,0.153-0.011,0.229-0.02c0.575-0.061,1.141-0.15,1.7-0.26c0.098-0.019,0.195-0.038,0.292-0.059
	c0.55-0.117,1.091-0.255,1.621-0.418c0.09-0.028,0.18-0.058,0.27-0.086c0.539-0.173,1.07-0.365,1.587-0.582
	c0.056-0.024,0.11-0.05,0.166-0.074c0.523-0.225,1.035-0.471,1.532-0.739c0.026-0.014,0.053-0.026,0.079-0.041
	c0.5-0.272,0.983-0.572,1.456-0.885c0.07-0.046,0.141-0.091,0.21-0.138c0.451-0.307,0.885-0.635,1.308-0.978
	c0.077-0.063,0.153-0.125,0.229-0.189c0.416-0.349,0.817-0.711,1.203-1.093c0.063-0.062,0.124-0.126,0.186-0.189
	C236.853,106.738,237.22,106.343,237.566,105.928z M214.051,26.672c0-2.485,2.021-4.507,4.507-4.507h4.006
	c2.485,0,4.507,2.022,4.507,4.507v30.614v29.325v6.828c0,2.485-2.022,4.507-4.507,4.507h-4.006c-2.486,0-4.507-2.022-4.507-4.507
	v-6.827V57.286V26.672z M113.38,105.928c0.013,0.271,0.02,0.542,0.02,0.814c0,9.388-7.637,17.026-17.026,17.026
	c-9.726,0-17.478-8.17-17.005-17.84c1.53,1.836,3.521,3.489,5.683,4.668c0.026,0.014,0.053,0.026,0.079,0.041
	c0.498,0.268,1.01,0.514,1.532,0.739c0.056,0.024,0.11,0.05,0.166,0.074c0.518,0.217,1.049,0.409,1.587,0.582
	c0.09,0.029,0.179,0.059,0.269,0.086c0.531,0.162,1.072,0.3,1.621,0.418c0.097,0.021,0.194,0.04,0.292,0.059
	c0.559,0.11,1.125,0.199,1.7,0.26c0.076,0.008,0.152,0.012,0.229,0.02c0.607,0.057,1.221,0.093,1.843,0.093h4.006
	c0.622,0,1.235-0.036,1.843-0.093c0.076-0.007,0.153-0.011,0.229-0.02c0.575-0.061,1.141-0.15,1.7-0.26
	c0.098-0.019,0.195-0.038,0.292-0.059c0.55-0.117,1.091-0.255,1.621-0.418c0.09-0.028,0.18-0.058,0.27-0.086
	c0.539-0.173,1.07-0.365,1.587-0.582c0.056-0.024,0.11-0.05,0.166-0.074c0.523-0.225,1.035-0.471,1.532-0.739
	c0.026-0.014,0.053-0.026,0.079-0.041c0.5-0.272,0.983-0.572,1.456-0.885c0.07-0.046,0.141-0.091,0.21-0.138
	c0.451-0.307,0.885-0.635,1.308-0.978c0.077-0.063,0.153-0.125,0.229-0.189c0.416-0.349,0.817-0.711,1.203-1.093
	c0.063-0.062,0.124-0.126,0.186-0.189C112.667,106.738,113.034,106.343,113.38,105.928z M89.864,26.672
	c0-2.485,2.022-4.507,4.507-4.507h4.006c2.485,0,4.507,2.022,4.507,4.507v30.614c0,12.55,0,23.28,0,36.153
	c0,2.485-2.022,4.507-4.507,4.507H94.37c-2.485,0-4.507-2.022-4.507-4.507v-6.827C89.864,80.575,89.864,33.108,89.864,26.672z
	 M15.023,90.086c0-13.944,11.345-25.289,25.29-25.289h34.53v18.224c-21.624,19.649-7.676,55.769,21.532,55.769
	c17.671,0,32.048-14.377,32.048-32.048c0-9.084-3.872-17.684-10.516-23.722V64.798h81.122v18.224
	c-6.644,6.037-10.516,14.637-10.516,23.721c0,17.671,14.377,32.048,32.048,32.048s32.048-14.377,32.048-32.048
	c0-9.084-3.872-17.684-10.516-23.722V64.798h81.121v18.224c-6.644,6.037-10.516,14.637-10.516,23.721
	c0,17.671,14.377,32.048,32.048,32.048c17.671,0,32.048-14.377,32.048-32.048c0-9.084-3.872-17.684-10.516-23.722V64.798h48.494
	c13.945,0,25.291,11.345,25.291,25.289v76.746H15.023V90.086z M495.956,473.313c-3.652,9.883-13.189,16.523-23.73,16.523h-26.094
	c5.592-6.921,8.951-15.719,8.951-25.29v-99.483c0-4.148-3.363-7.511-7.511-7.511c-4.148,0-7.511,3.363-7.511,7.511v99.483
	c0,13.945-11.346,25.29-25.291,25.29H40.312c-13.945,0-25.29-11.345-25.29-25.29V209.898h188.062c4.148,0,7.511-3.363,7.511-7.511
	s-3.363-7.511-7.511-7.511H15.023v-13.02h425.04v13.02H238.036c-4.148,0-7.511,3.363-7.511,7.511s3.363,7.511,7.511,7.511h202.027
	V330.01c0,4.148,3.363,7.511,7.511,7.511c4.148,0,7.511-3.363,7.511-7.511c0-5.881,0-135.546,0-141.442l41.245,268.812
	c0.005,0.038,0.011,0.075,0.017,0.113C497.935,467.852,495.996,473.206,495.956,473.313z"/>
<path d="M171.187,248.408h-24.729c-4.148,0-7.511,3.363-7.511,7.511c0,4.148,3.363,7.511,7.511,7.511h24.729
	c4.149,0,7.511-3.363,7.511-7.511C178.699,251.771,175.336,248.408,171.187,248.408z"/>
<path d="M239.936,248.408h-24.732c-4.148,0-7.511,3.363-7.511,7.511c0,4.148,3.363,7.511,7.511,7.511h24.732
	c4.149,0,7.511-3.363,7.511-7.511C247.448,251.771,244.086,248.408,239.936,248.408z"/>
<path d="M308.686,248.408h-24.733c-4.148,0-7.511,3.363-7.511,7.511c0,4.148,3.363,7.511,7.511,7.511h24.733
	c4.148,0,7.511-3.363,7.511-7.511C316.198,251.771,312.834,248.408,308.686,248.408z"/>
<path d="M377.432,248.408H352.7c-4.148,0-7.511,3.363-7.511,7.511c0,4.148,3.363,7.511,7.511,7.511h24.732
	c4.149,0,7.511-3.363,7.511-7.511C384.944,251.771,381.582,248.408,377.432,248.408z"/>
<path d="M102.44,308.924H77.708c-4.148,0-7.511,3.363-7.511,7.511c0,4.148,3.363,7.511,7.511,7.511h24.732
	c4.149,0,7.511-3.363,7.511-7.511C109.952,312.286,106.59,308.924,102.44,308.924z"/>
<path d="M171.187,308.924h-24.729c-4.148,0-7.511,3.363-7.511,7.511c0,4.148,3.363,7.511,7.511,7.511h24.729
	c4.149,0,7.511-3.363,7.511-7.511C178.699,312.286,175.336,308.924,171.187,308.924z"/>
<path d="M239.936,308.924h-24.732c-4.148,0-7.511,3.363-7.511,7.511c0,4.148,3.363,7.511,7.511,7.511h24.732
	c4.149,0,7.511-3.363,7.511-7.511C247.448,312.286,244.086,308.924,239.936,308.924z"/>
<path d="M308.686,308.924h-24.733c-4.148,0-7.511,3.363-7.511,7.511c0,4.148,3.363,7.511,7.511,7.511h24.733
	c4.148,0,7.511-3.363,7.511-7.511C316.198,312.286,312.834,308.924,308.686,308.924z"/>
<path d="M377.432,308.924H352.7c-4.148,0-7.511,3.363-7.511,7.511c0,4.148,3.363,7.511,7.511,7.511h24.732
	c4.149,0,7.511-3.363,7.511-7.511C384.944,312.286,381.582,308.924,377.432,308.924z"/>
<path d="M102.44,369.441H77.708c-4.148,0-7.511,3.363-7.511,7.511s3.363,7.511,7.511,7.511h24.732c4.149,0,7.511-3.363,7.511-7.511
	S106.59,369.441,102.44,369.441z"/>
<path d="M171.187,369.441h-24.729c-4.148,0-7.511,3.363-7.511,7.511s3.363,7.511,7.511,7.511h24.729
	c4.149,0,7.511-3.363,7.511-7.511S175.336,369.441,171.187,369.441z"/>
<path d="M239.936,369.441h-24.732c-4.148,0-7.511,3.363-7.511,7.511s3.363,7.511,7.511,7.511h24.732
	c4.149,0,7.511-3.363,7.511-7.511S244.086,369.441,239.936,369.441z"/>
<path d="M308.686,369.441h-24.733c-4.148,0-7.511,3.363-7.511,7.511s3.363,7.511,7.511,7.511h24.733
	c4.148,0,7.511-3.363,7.511-7.511S312.834,369.441,308.686,369.441z"/>
<path d="M377.432,369.441H352.7c-4.148,0-7.511,3.363-7.511,7.511s3.363,7.511,7.511,7.511h24.732c4.149,0,7.511-3.363,7.511-7.511
	S381.582,369.441,377.432,369.441z"/>
<path d="M102.44,429.959H77.708c-4.148,0-7.511,3.363-7.511,7.511c0,4.148,3.363,7.511,7.511,7.511h24.732
	c4.149,0,7.511-3.363,7.511-7.511C109.952,433.322,106.59,429.959,102.44,429.959z"/>
<path d="M171.187,429.959h-24.729c-4.148,0-7.511,3.363-7.511,7.511c0,4.148,3.363,7.511,7.511,7.511h24.729
	c4.149,0,7.511-3.363,7.511-7.511C178.699,433.322,175.336,429.959,171.187,429.959z"/>
<path d="M239.936,429.959h-24.732c-4.148,0-7.511,3.363-7.511,7.511c0,4.148,3.363,7.511,7.511,7.511h24.732
	c4.149,0,7.511-3.363,7.511-7.511C247.448,433.322,244.086,429.959,239.936,429.959z"/>
<path d="M308.686,429.959h-24.733c-4.148,0-7.511,3.363-7.511,7.511c0,4.148,3.363,7.511,7.511,7.511h24.733
	c4.148,0,7.511-3.363,7.511-7.511C316.198,433.322,312.834,429.959,308.686,429.959z"/>
</svg>
