<svg id="EmbedPress" xmlns="http://www.w3.org/2000/svg" width="218.97" height="50.864" viewBox="0 0 218.97 50.864">
  <path id="Path_1" data-name="Path 1" d="M0,0V9.811H2.84V2.84H9.788V0Z" fill="#9595c1"/>
  <g id="Group_2" data-name="Group 2" transform="translate(0.075 6.39)">
    <g id="Group_1" data-name="Group 1" transform="translate(70.34 9.594)">
      <path id="Path_2" data-name="Path 2" d="M300,86.009V68.1h12.581v3.028h-9.06V75.4h8.872v3.028h-8.872v4.554h9.06v3.028Z" transform="translate(-300 -68.1)" fill="#25396f"/>
      <path id="Path_3" data-name="Path 3" d="M382.577,101.391V93.223a2.025,2.025,0,0,0-2.183-2.3,3.719,3.719,0,0,0-2.911,1.62l-.023.047v8.825h-3.122V93.246a2.025,2.025,0,0,0-2.183-2.3,3.725,3.725,0,0,0-2.911,1.643l-.047.047v8.779h-3.1V88.529h3.1v2.159l.352-.516a5.557,5.557,0,0,1,4.178-1.972,3.328,3.328,0,0,1,3.5,2.277l.117.4.211-.352a5.4,5.4,0,0,1,4.389-2.324c2.418,0,3.709,1.314,3.709,3.8v9.389Z" transform="translate(-350.585 -83.482)" fill="#25396f"/>
      <path id="Path_4" data-name="Path 4" d="M468.194,86.338a5.014,5.014,0,0,1-3.943-1.948l-.352-.446v2.066h-3.1V68.1h3.1v7.135l.352-.446a4.88,4.88,0,0,1,3.943-1.948c3.4,0,5.68,2.723,5.68,6.783S471.644,86.338,468.194,86.338Zm-1.1-10.821a4.1,4.1,0,0,0-3.169,1.62l-.023.047V82l.023.047a4.122,4.122,0,0,0,3.145,1.573c2.136,0,3.568-1.62,3.568-4.037C470.682,77.16,469.226,75.517,467.09,75.517Z" transform="translate(-423.057 -68.1)" fill="#25396f"/>
      <path id="Path_5" data-name="Path 5" d="M532.677,101.643a6.772,6.772,0,0,1-.211-13.543c3.849,0,6.455,2.864,6.455,7.112v.563h-9.882l.023.211a3.771,3.771,0,0,0,4.014,3.239,5.917,5.917,0,0,0,3.5-1.221l1.314,1.925A7.907,7.907,0,0,1,532.677,101.643Zm-.211-11.149a3.378,3.378,0,0,0-3.474,3.1l-.023.211h6.971l-.023-.211A3.246,3.246,0,0,0,532.466,90.494Z" transform="translate(-472.8 -83.406)" fill="#25396f"/>
      <path id="Path_6" data-name="Path 6" d="M596.18,86.338c-3.45,0-5.68-2.652-5.68-6.76,0-4.061,2.277-6.783,5.68-6.783a4.98,4.98,0,0,1,3.943,1.948l.352.446V68.1H603.6V86.033h-3.122V83.967l-.352.446A5.025,5.025,0,0,1,596.18,86.338Zm1.056-10.821c-2.089,0-3.544,1.667-3.544,4.061,0,2.371,1.455,4.037,3.544,4.037a3.988,3.988,0,0,0,3.192-1.6l.023-.047V77.16l-.023-.047A3.954,3.954,0,0,0,597.236,75.517Z" transform="translate(-522.314 -68.1)" fill="#25396f"/>
      <path id="Path_7" data-name="Path 7" d="M659.6,86.009V68.1h8.38c4.108,0,5.962,2.864,5.962,5.7s-1.831,5.7-5.962,5.7h-4.859v6.5Zm3.521-9.553h4.342a2.674,2.674,0,0,0,2.887-2.676,2.636,2.636,0,0,0-2.887-2.676h-4.342Z" transform="translate(-575.195 -68.1)" fill="#25396f"/>
      <path id="Path_8" data-name="Path 8" d="M730.6,101.391V88.529h3.1v2.183l.352-.446a5.6,5.6,0,0,1,3.873-2.066v2.981a6.846,6.846,0,0,0-.775-.047,4.611,4.611,0,0,0-3.427,1.6l-.024.047v8.614Z" transform="translate(-629.53 -83.482)" fill="#25396f"/>
      <path id="Path_9" data-name="Path 9" d="M774.377,101.643a6.772,6.772,0,0,1-.211-13.543c3.849,0,6.455,2.864,6.455,7.112v.563h-9.882l.023.211a3.771,3.771,0,0,0,4.014,3.239,5.971,5.971,0,0,0,3.5-1.221l1.314,1.925A7.951,7.951,0,0,1,774.377,101.643Zm-.235-11.149a3.378,3.378,0,0,0-3.474,3.1l-.023.211h6.971l-.023-.211A3.232,3.232,0,0,0,774.143,90.494Z" transform="translate(-657.768 -83.406)" fill="#25396f"/>
      <path id="Path_10" data-name="Path 10" d="M836.78,101.8a8.763,8.763,0,0,1-5.68-1.9l1.291-2.112a7.911,7.911,0,0,0,4.53,1.713c1.526,0,2.418-.61,2.418-1.62,0-1.033-1.314-1.291-2.864-1.6-2.23-.446-5.023-1.009-5.023-4.014,0-1.925,1.643-3.967,5.234-3.967a8.385,8.385,0,0,1,5.093,1.667l-1.174,2.019a5.9,5.9,0,0,0-3.9-1.408c-1.338,0-2.277.634-2.277,1.526,0,.915,1.174,1.15,2.676,1.455,2.3.469,5.187,1.056,5.187,4.225C842.32,100.2,840.137,101.8,836.78,101.8Z" transform="translate(-706.44 -83.559)" fill="#25396f"/>
      <path id="Path_11" data-name="Path 11" d="M890.88,101.8a8.763,8.763,0,0,1-5.68-1.9l1.291-2.112a7.911,7.911,0,0,0,4.53,1.713c1.526,0,2.418-.61,2.418-1.62,0-1.033-1.314-1.291-2.864-1.6-2.23-.446-5.023-1.009-5.023-4.014,0-1.925,1.643-3.967,5.234-3.967a8.385,8.385,0,0,1,5.093,1.667l-1.174,2.019a5.9,5.9,0,0,0-3.9-1.408c-1.338,0-2.277.634-2.277,1.526,0,.915,1.174,1.15,2.676,1.455,2.3.469,5.187,1.056,5.187,4.225C896.42,100.2,894.237,101.8,890.88,101.8Z" transform="translate(-747.842 -83.559)" fill="#25396f"/>
    </g>
    <path id="Path_12" data-name="Path 12" d="M181.871,174.9v6.971H174.9v2.84h9.811V174.9Z" transform="translate(-133.923 -140.238)" fill="#9595c1"/>
    <path id="Path_13" data-name="Path 13" d="M49.349,33.65a12.6,12.6,0,0,0-9.53-6.337,12.422,12.422,0,0,0-6.83,1.127c-.235.117-.493.235-.728.376A12.566,12.566,0,0,0,26.3,36.209h0L19.446,55.761A7.141,7.141,0,0,1,16.23,59.8c-.117.07-.258.141-.4.211a6.863,6.863,0,0,1-3.685.61,6.792,6.792,0,0,1-5.117-3.4A6.706,6.706,0,0,1,6.443,52.1a6.78,6.78,0,0,1,3.216-4.061c.141-.07.258-.141.4-.211a6.826,6.826,0,0,1,3.685-.61c.047,0,.094.023.141.023l-1.408,4.108a.532.532,0,0,0,.329.681L16.442,53.2a.507.507,0,0,0,.657-.329l3.145-8.943a.857.857,0,0,0-.047-.681.805.805,0,0,0-.54-.446l-3.31-.962a.834.834,0,0,0-.235-.047l-.305-.094v.023c-.469-.117-.939-.188-1.408-.258a12.539,12.539,0,0,0-6.854,1.127c-.258.117-.493.258-.728.376A12.559,12.559,0,0,0,.809,50.527a12.4,12.4,0,0,0,1.1,9.53,12.6,12.6,0,0,0,9.53,6.337,12.422,12.422,0,0,0,6.83-1.127c.235-.117.493-.235.728-.376a12.5,12.5,0,0,0,5.938-7.37h0l6.9-19.552V37.9a7.239,7.239,0,0,1,3.192-4.014c.117-.07.258-.141.4-.211a6.863,6.863,0,0,1,3.685-.61A6.729,6.729,0,0,1,41.6,45.645c-.141.07-.258.141-.4.211a6.91,6.91,0,0,1-3.709.61,6.669,6.669,0,0,1-1.15-.235H36.3L34.186,45.6a.422.422,0,0,0-.54.282L32,50.55a.448.448,0,0,0,.305.587l2.605.751a11.149,11.149,0,0,0,1.925.376,12.457,12.457,0,0,0,6.83-1.127h.023c.258-.117.493-.258.751-.376A12.64,12.64,0,0,0,49.349,33.65Z" transform="translate(-0.321 -27.225)" fill="#5b4e96"/>
  </g>
</svg>
