<svg id="regular" enable-background="new 0 0 24 24" height="512" viewBox="0 0 24 24" width="512" xmlns="http://www.w3.org/2000/svg"><path d="m13.192 13.94c-.929-1.05-1.793-7.608-1.856-7.93-.591-3.766-2.522-4.385-4.042-4.236-1.873.176-4.375 2.8-7.04 5.151-.296.262-.339.708-.097 1.021l1.059 1.369c.245.318.697.387 1.024.156.891-.626 1.264-.841 1.408-.914 1.979.66 2.032 13.959 7.22 13.959 5.144 0 16.863-14.665 11.984-19.88-1.869-2-7.848-2.168-9.943 4.679-.188.615.439 1.165 1.021.905.453-.201.911-.303 1.361-.303.665 0 .714.25.75.433.304 1.547-2.008 4.976-2.849 5.59zm4.372-5.326c0-.649-.186-1.175-.553-1.561-.486-.511-1.288-.706-2.183-.613 1.793-4.034 5.86-3.922 6.928-2.78 3.513 3.761-6.54 17.355-10.889 17.355-3.865 0-3.507-13.972-7.296-13.972-.254 0-.521.062-1.604.792l-.196-.252c1.524-1.374 4.406-4.196 5.665-4.314 2.436-.245 2.385 3.38 2.516 3.622.958 6.439 1.771 8.613 3.219 8.613 1.519-.002 4.393-4.508 4.393-6.89z"/></svg>