<svg width="18" height="24" viewBox="0 0 18 24" fill="none" xmlns="http://www.w3.org/2000/svg">
<path d="M18.0069 8.22201C18.0102 7.52832 17.8204 6.8474 17.4587 6.25545C17.097 5.6635 16.5777 5.18388 15.959 4.87024C15.3402 4.55661 14.6464 4.42135 13.9551 4.47959C13.2639 4.53783 12.6025 4.78727 12.0449 5.20001C11.4876 5.61313 11.0562 6.17325 10.7992 6.81765C10.5421 7.46204 10.4695 8.16527 10.5895 8.84859C10.7095 9.53191 11.0173 10.1683 11.4786 10.6866C11.9398 11.2049 12.5362 11.5845 13.2009 11.783C12.9557 12.2821 12.576 12.7028 12.1047 12.9978C11.6333 13.2928 11.089 13.4505 10.5329 13.453H7.54293C6.43652 13.4568 5.37108 13.8721 4.55393 14.618V7.40001C5.46136 7.21489 6.26772 6.69941 6.81668 5.95352C7.36563 5.20763 7.61806 4.28447 7.52503 3.36303C7.43199 2.4416 7.00013 1.58753 6.31315 0.966428C5.62618 0.345324 4.73305 0.00143433 3.80693 0.00143433C2.88081 0.00143433 1.98768 0.345324 1.30071 0.966428C0.613738 1.58753 0.181869 2.4416 0.0888354 3.36303C-0.00419779 4.28447 0.248233 5.20763 0.797186 5.95352C1.34614 6.69941 2.1525 7.21489 3.05993 7.40001V16.517C2.15418 16.69 1.34304 17.1885 0.77953 17.9184C0.216016 18.6484 -0.060925 19.5592 0.000945461 20.4793C0.0628159 21.3994 0.45922 22.265 1.11539 22.9129C1.77156 23.5608 2.64213 23.9462 3.56289 23.9963C4.48366 24.0465 5.39096 23.7581 6.11367 23.1853C6.83638 22.6126 7.32454 21.7952 7.48606 20.8874C7.64758 19.9795 7.4713 19.0439 6.99047 18.257C6.50965 17.4702 5.75751 16.8865 4.87593 16.616C5.12181 16.1177 5.5017 15.6977 5.97297 15.4033C6.44424 15.1088 6.98824 14.9515 7.54393 14.949H10.5339C11.4664 14.9445 12.3744 14.6493 13.1313 14.1046C13.8882 13.5599 14.4564 12.7928 14.7569 11.91C15.653 11.7925 16.476 11.3541 17.0736 10.6762C17.6712 9.99826 18.0028 9.12571 18.0069 8.22201ZM1.56493 3.73801C1.56493 3.44359 1.62292 3.15205 1.73559 2.88004C1.84826 2.60802 2.01341 2.36087 2.2216 2.15268C2.42979 1.94449 2.67694 1.77935 2.94896 1.66668C3.22097 1.554 3.51251 1.49601 3.80693 1.49601C4.10136 1.49601 4.3929 1.554 4.66491 1.66668C4.93692 1.77935 5.18408 1.94449 5.39226 2.15268C5.60045 2.36087 5.7656 2.60802 5.87827 2.88004C5.99094 3.15205 6.04893 3.44359 6.04893 3.73801C6.04893 4.33263 5.81272 4.90289 5.39226 5.32335C4.97181 5.7438 4.40155 5.98001 3.80693 5.98001C3.21232 5.98001 2.64206 5.7438 2.2216 5.32335C1.80114 4.90289 1.56493 4.33263 1.56493 3.73801ZM6.04893 20.179C6.04893 20.4734 5.99094 20.765 5.87827 21.037C5.7656 21.309 5.60045 21.5562 5.39226 21.7643C5.18408 21.9725 4.93692 22.1377 4.66491 22.2503C4.3929 22.363 4.10136 22.421 3.80693 22.421C3.51251 22.421 3.22097 22.363 2.94896 22.2503C2.67694 22.1377 2.42979 21.9725 2.2216 21.7643C2.01341 21.5562 1.84826 21.309 1.73559 21.037C1.62292 20.765 1.56493 20.4734 1.56493 20.179C1.56493 19.5844 1.80114 19.0141 2.2216 18.5937C2.64206 18.1732 3.21232 17.937 3.80693 17.937C4.40155 17.937 4.97181 18.1732 5.39226 18.5937C5.81272 19.0141 6.04893 19.5844 6.04893 20.179ZM14.2699 10.464C13.6752 10.464 13.1048 10.2277 12.6842 9.8072C12.2637 9.38665 12.0274 8.81626 12.0274 8.22151C12.0274 7.62677 12.2637 7.05638 12.6842 6.63583C13.1048 6.21528 13.6752 5.97901 14.2699 5.97901C14.8647 5.97901 15.4351 6.21528 15.8556 6.63583C16.2762 7.05638 16.5124 7.62677 16.5124 8.22151C16.5124 8.81626 16.2762 9.38665 15.8556 9.8072C15.4351 10.2277 14.8647 10.464 14.2699 10.464Z" fill="black"/>
</svg>
