<svg viewBox="0 -19 472.15569 472" xmlns="http://www.w3.org/2000/svg"><path d="m188.992188 182.480469c9.617187-.007813 18.300781-5.757813 22.0625-14.605469 3.765624-8.851562 1.882812-19.09375-4.78125-26.027344l-11.070313-11.496094c-1.472656-1.523437-3.484375-2.402343-5.601563-2.445312-2.113281-.011719-4.152343.785156-5.695312 2.230469l-23.105469 22.199219-23.046875 22.199218c-2.144531 1.964844-3.058594 4.933594-2.382812 7.757813.671875 2.828125 2.828125 5.066406 5.625 5.851562 2.796875.78125 5.800781-.011719 7.84375-2.078125l17.289062-16.648437 2.121094 2.199219-10.296875 29.054687c-.992187 2.703125-.457031 5.734375 1.402344 7.933594 1.863281 2.195312 4.761719 3.222656 7.59375 2.6875 2.828125-.535157 5.152343-2.550781 6.082031-5.277344l8.753906-24.71875c2.328125.757813 4.757813 1.160156 7.207032 1.183594zm.210937-35.296875 5.550781 5.761718c3.074219 3.191407 2.980469 8.269532-.207031 11.34375-3.191406 3.074219-8.269531 2.980469-11.34375-.207031l-5.546875-5.769531zm0 0" fill="#5B4E96"/><path d="m150.929688 142.113281c5.925781-.15625 11.582031-2.523437 15.855468-6.632812 9.546875-9.195313 9.835938-24.386719.640625-33.9375l-11.105469-11.527344c-3.066406-3.175781-8.121093-3.269531-11.304687-.207031l-46.09375 44.398437c-3.183594 3.066407-3.273437 8.132813-.207031 11.3125l11.09375 11.519531c4.398437 4.59375 10.445312 7.238282 16.800781 7.347657h.464844c12.578125.027343 23.011719-9.730469 23.824219-22.28125zm-.578126-35.199219 5.546876 5.757813c3.0625 3.183594 2.964843 8.25-.21875 11.3125-1.464844 1.566406-3.554688 2.390625-5.695313 2.242187-2.117187-.039062-4.132813-.917968-5.597656-2.449218l-5.546875-5.769532zm-17.71875 39.269532c-1.476562 1.546875-3.558593 2.367187-5.695312 2.242187-2.121094-.039062-4.136719-.925781-5.601562-2.457031l-5.542969-5.761719 11.519531-11.09375 5.542969 5.757813c3.042969 3.183594 2.941406 8.222656-.222657 11.28125zm0 0" fill="#5B4E96"/><path d="m250.679688 187.96875c-2.3125-2.402344-5.875-3.117188-8.933594-1.792969l-62.753906 27.113281c-4.019532 1.773438-5.855469 6.457032-4.113282 10.492188 1.742188 4.03125 6.410156 5.90625 10.457032 4.195312l10.601562-4.582031 17.28125 17.949219-4.96875 10.402344c-1.902344 3.984375-.210938 8.761718 3.773438 10.664062 1.074218.523438 2.25.796875 3.441406.796875 3.074218-.003906 5.875-1.773437 7.199218-4.550781l29.449219-61.6875c1.445313-3.003906.875-6.589844-1.433593-9zm-39.054688 28.648438 16.878906-7.296876-7.917968 16.601563zm0 0" fill="#5B4E96"/><path d="m311.730469 251.351562c-3.066407-3.183593-8.128907-3.277343-11.3125-.214843l-26.015625 25.046875 11.558594-46.152344c.863281-3.457031-.667969-7.070312-3.753907-8.855469-3.085937-1.785156-6.980469-1.316406-9.550781 1.152344l-46.09375 44.402344c-3.046875 3.085937-3.078125 8.042969-.066406 11.164062 3.007812 3.125 7.960937 3.28125 11.160156.355469l26.007812-25.050781-11.558593 46.152343c-.867188 3.460938.660156 7.078126 3.746093 8.867188 3.089844 1.789062 6.984376 1.316406 9.558594-1.152344l46.085938-44.402344c3.1875-3.058593 3.292968-8.125.234375-11.3125zm0 0" fill="#5B4E96"/><path d="m328.378906 268.640625c-1.46875-1.527344-3.484375-2.410156-5.601562-2.457031-2.105469.050781-4.121094.84375-5.695313 2.242187l-46.097656 44.398438c-3.175781 3.0625-3.273437 8.121093-.214844 11.304687l5.550781 5.769532c9.839844 10.617187 24.648438 15.089843 38.722657 11.695312 14.070312-3.394531 25.210937-14.125 29.128906-28.0625 3.914063-13.9375-.003906-28.902344-10.25-39.128906zm-6.609375 50.792969c-9.546875 9.195312-24.738281 8.914062-33.9375-.632813l34.570313-33.304687c9.195312 9.546875 8.914062 24.742187-.632813 33.9375zm0 0" fill="#5B4E96"/><path d="m431.3125 261.9375 8.96875-8.96875-11.3125-11.3125-8.96875 8.96875v-12.6875h-16v12.6875l-8.96875-8.96875-11.308594 11.3125 8.964844 8.96875h-12.6875v16h12.6875l-8.964844 8.976562 11.308594 11.3125 8.96875-8.976562v12.6875h16v-12.6875l8.96875 8.976562 11.3125-11.3125-8.96875-8.976562h12.6875v-16zm0 0" fill="#5B4E96"/><path d="m412 209.9375c-13.910156-.015625-27.390625 4.828125-38.109375 13.695312l-204.761719-212.582031c-1.632812-1.703125-3.933594-2.59375-6.289062-2.441406l-132.238282 8.535156-14.082031-14.617187c-3.066406-3.183594-8.132812-3.277344-11.3125-.210938-3.183593 3.066406-3.28125 8.132813-.214843 11.316406l13.921874 14.449219-18.8242182 125.863281c-.3710938 2.457032.4218752 4.945313 2.1445312 6.734376l260.847656 270.808593c3.0625 3.183594 8.128907 3.28125 11.3125.214844l111.789063-107.679687c22.257812 10.6875 48.785156 6.652343 66.855468-10.171876 18.066407-16.820312 23.992188-42.992187 14.921876-65.953124-9.066407-22.960938-31.273438-38.023438-55.960938-37.960938zm-379.078125-167.3125 11.925781 12.382812c-3.695312 7.355469-3.359375 16.089844.898438 23.136719 4.257812 7.042969 11.832031 11.40625 20.0625 11.550781h.457031c13.253906.125 24.097656-10.523437 24.21875-23.777343.121094-13.257813-10.523437-24.097657-23.777344-24.222657-3.566406-.074218-7.101562.679688-10.328125 2.203126l-11.242187-11.65625 115.03125-7.425782 2.984375 3.097656-138.289063 133.199219-8.367187-8.695312zm27.792969 17.3125c1.480468-1.441406 3.46875-2.246094 5.535156-2.242188h.160156c3.234375.066407 6.109375 2.070313 7.289063 5.082032 1.179687 3.011718.429687 6.4375-1.898438 8.679687-1.496093 1.515625-3.566406 2.328125-5.695312 2.230469-3.234375-.058594-6.113281-2.0625-7.296875-5.074219s-.433594-6.441406 1.898437-8.683593zm208.34375 354.6875-35.335938-36.6875h73.421875zm54.445312-52.441406v-.246094h-105.199218l-182.304688-189.304688 138.25-133.199218 188.800781 196c-17.753906 25.023437-13.648437 59.429687 9.496094 79.574218zm88.496094-48.246094c-24.300781 0-44-19.699219-44-44s19.699219-44 44-44 44 19.699219 44 44c-.023438 24.289062-19.710938 43.972656-44 44zm0 0" fill="#5B4E96"/></svg>