<svg width="458" height="457" viewBox="0 0 458 457" fill="none" xmlns="http://www.w3.org/2000/svg">
<path d="M313.27 296.28C298.48 309.14 280.08 325.14 246.56 325.14H226.55C202.33 325.14 180.3 316.52 164.54 300.86C149.15 285.56 140.65 264.64 140.65 241.92V215.05C140.65 192.33 149.13 171.39 164.54 156.11C180.31 140.45 202.33 131.83 226.55 131.83H246.56C280.07 131.83 298.48 147.83 313.27 160.69C328.61 174.03 341.86 185.55 377.16 185.55C382.64 185.55 388.02 185.12 393.25 184.29C393.21 184.18 393.17 184.09 393.13 183.99C391.03 178.89 388.56 173.87 385.71 169.03L362.11 128.93C340.46 92.13 300.43 69.47 257.13 69.47H209.92C166.62 69.47 126.59 92.14 104.94 128.93L81.34 169.03C59.69 205.83 59.69 251.15 81.34 287.94L104.94 328.04C126.59 364.84 166.62 387.49 209.92 387.49H257.13C300.43 387.49 340.46 364.82 362.11 328.04L385.71 287.94C388.56 283.09 391.03 278.09 393.13 272.99C393.17 272.88 393.21 272.79 393.25 272.69C388.02 271.86 382.66 271.43 377.16 271.43C341.87 271.42 328.61 282.94 313.27 296.28Z" fill="#006bff"/>
<path d="M246.57 156.16H226.56C189.7 156.16 165.47 181.99 165.47 215.05V241.92C165.47 274.98 189.69 300.81 226.56 300.81H246.57C300.28 300.81 296.06 247.09 377.16 247.09C384.93 247.09 392.61 247.79 400.08 249.15C402.54 235.49 402.54 221.5 400.08 207.84C392.6 209.2 384.93 209.9 377.16 209.9C296.06 209.89 300.28 156.16 246.57 156.16Z" fill="#006bff"/>
<path d="M446.66 268.76C432.81 258.74 416.92 252.2 400.07 249.12C400.04 249.25 400.03 249.38 400 249.51C398.56 257.38 396.31 265.13 393.23 272.65C407.45 274.91 420.55 280.15 431.75 288.2C431.71 288.32 431.68 288.44 431.64 288.57C425.18 309.14 415.44 328.53 402.71 346.17C390.13 363.59 374.92 378.93 357.49 391.74C321.31 418.36 278.22 432.42 232.86 432.42C204.78 432.42 177.55 427.03 151.92 416.4C127.17 406.13 104.93 391.42 85.8101 372.67C66.7001 353.92 51.7101 332.11 41.2401 307.82C30.4101 282.68 24.9101 255.97 24.9101 228.42C24.9101 200.87 30.4101 174.16 41.2401 149.02C51.7101 124.74 66.7001 102.92 85.8101 84.1701C104.92 65.4201 127.16 50.7201 151.92 40.4401C177.54 29.8101 204.77 24.4201 232.86 24.4201C278.22 24.4201 321.31 38.4801 357.49 65.1001C374.92 77.9201 390.12 93.2501 402.71 110.67C415.44 128.32 425.18 147.71 431.64 168.27C431.68 168.4 431.72 168.52 431.75 168.64C420.56 176.68 407.45 181.94 393.23 184.19C396.31 191.72 398.57 199.49 400 207.36C400.03 207.49 400.04 207.61 400.07 207.74C416.92 204.66 432.8 198.12 446.66 188.1C459.94 178.46 457.37 167.57 455.35 161.11C426.08 67.9001 337.55 0.120117 232.87 0.120117C104.32 0.120117 0.120117 102.34 0.120117 228.44C0.120117 354.54 104.33 456.76 232.87 456.76C337.55 456.76 426.08 388.97 455.35 295.71C457.38 289.29 459.96 278.41 446.66 268.76Z" fill="#006bff"/>
<path d="M393.25 184.26C388.02 185.09 382.66 185.52 377.16 185.52C341.87 185.52 328.61 174 313.27 160.66C298.48 147.8 280.08 131.8 246.56 131.8H226.55C202.33 131.8 180.3 140.42 164.54 156.08C149.15 171.38 140.65 192.3 140.65 215.02V241.89C140.65 264.61 149.13 285.55 164.54 300.83C180.31 316.49 202.33 325.11 226.55 325.11H246.56C280.07 325.11 298.48 309.1 313.27 296.25C328.61 282.91 341.86 271.39 377.16 271.39C382.64 271.39 388.02 271.82 393.25 272.65C396.33 265.13 398.57 257.37 400.02 249.51C400.05 249.38 400.06 249.25 400.09 249.12C392.61 247.76 384.94 247.06 377.17 247.06C296.07 247.06 300.29 300.78 246.58 300.78H226.57C189.71 300.78 165.48 274.95 165.48 241.89V215.02C165.48 181.96 189.7 156.13 226.57 156.13H246.58C300.29 156.13 296.08 209.85 377.17 209.85C384.94 209.85 392.62 209.15 400.09 207.79C400.06 207.66 400.05 207.54 400.02 207.41C398.59 199.56 396.33 191.8 393.25 184.26Z" fill="#5FC2D6"/>
<path d="M393.25 184.26C388.02 185.09 382.66 185.52 377.16 185.52C341.87 185.52 328.61 174 313.27 160.66C298.48 147.8 280.08 131.8 246.56 131.8H226.55C202.33 131.8 180.3 140.42 164.54 156.08C149.15 171.38 140.65 192.3 140.65 215.02V241.89C140.65 264.61 149.13 285.55 164.54 300.83C180.31 316.49 202.33 325.11 226.55 325.11H246.56C280.07 325.11 298.48 309.1 313.27 296.25C328.61 282.91 341.86 271.39 377.16 271.39C382.64 271.39 388.02 271.82 393.25 272.65C396.33 265.13 398.57 257.37 400.02 249.51C400.05 249.38 400.06 249.25 400.09 249.12C392.61 247.76 384.94 247.06 377.17 247.06C296.07 247.06 300.29 300.78 246.58 300.78H226.57C189.71 300.78 165.48 274.95 165.48 241.89V215.02C165.48 181.96 189.7 156.13 226.57 156.13H246.58C300.29 156.13 296.08 209.85 377.17 209.85C384.94 209.85 392.62 209.15 400.09 207.79C400.06 207.66 400.05 207.54 400.02 207.41C398.59 199.56 396.33 191.8 393.25 184.26Z" fill="#5FC2D6"/>
</svg>
