<svg height="512pt" viewBox="0 0 512 512" width="512pt" xmlns="http://www.w3.org/2000/svg"><path d="m512 256c0 141.386719-114.613281 256-256 256s-256-114.613281-256-256 114.613281-256 256-256 256 114.613281 256 256zm0 0" fill="#006ef5"/><path d="m512 256c0-5.152344-.171875-10.265625-.46875-15.339844l-158.53125-158.53125-66.453125 15.371094v107.957031c-.164063-.152343-.324219-.300781-.492187-.453125-5.714844-6.375-18.191407-18.09375-31.785157-25.527344-13.976562-7.621093-29.597656-11.445312-46.863281-11.445312-15.996094 0-30.679688 3.074219-44.019531 9.25-13.367188 6.171875-24.902344 14.609375-34.625 25.328125-9.726563 10.722656-17.265625 23.421875-22.597657 38.097656-5.355468 14.695313-8.011718 30.40625-8.011718 47.148438 0 17.308593 2.890625 33.238281 8.714844 47.78125 5.804687 14.546875 13.882812 27.242187 24.242187 38.097656 0 0 82.089844 82.074219 137.953125 137.9375 135.316406-6.800781 242.9375-118.667969 242.9375-255.671875zm0 0" fill="#004eb2"/><path d="m286.546875 97.5v108.050781c-5.480469-6.234375-18.300781-18.429687-32.277344-26.074219-13.976562-7.621093-29.597656-11.445312-46.863281-11.445312-15.996094 0-30.679688 3.078125-44.019531 9.25-13.367188 6.171875-24.902344 14.609375-34.625 25.332031-9.726563 10.71875-17.265625 23.417969-22.597657 38.09375-5.355468 14.699219-8.011718 30.40625-8.011718 47.148438 0 17.3125 2.890625 33.238281 8.714844 47.785156 5.804687 14.542969 13.882812 27.242187 24.242187 38.09375 10.359375 10.875 22.691406 19.3125 36.976563 25.332031 14.28125 6.019532 29.902343 9.027344 46.863281 9.027344 16.957031 0 32.886719-3.515625 47.804687-10.566406 9.066406-4.285156 17.003906-9.929688 23.792969-16.9375v27.503906h66.453125v-325.964844zm-117.359375 193.402344c0-32.355469 26.230469-58.585938 58.585938-58.585938 32.355468 0 58.585937 26.230469 58.585937 58.585938 0 32.355468-26.230469 58.585937-58.585937 58.585937-32.355469 0-58.585938-26.230469-58.585938-58.585937zm0 0" fill="#fff"/><path d="m286.550781 97.5v108.050781c-5.480469-6.230469-18.300781-18.429687-32.28125-26.070312-3.648437-1.992188-7.398437-3.71875-11.269531-5.191407v60.03125c24.980469 6.699219 43.359375 29.5 43.359375 56.578126 0 27.089843-18.378906 49.890624-43.359375 56.589843v57.152344c6.769531-1.710937 13.351562-4.082031 19.75-7.109375 9.070312-4.292969 17.011719-9.929688 23.800781-16.941406v27.5h66.449219v-325.960938zm0 0" fill="#fff5cb"/></svg>