<svg width="263" height="70" viewBox="0 0 263 70" fill="none" xmlns="http://www.w3.org/2000/svg">
<path d="M18.9436 8.56189H16.4304V18.3569H18.9436V8.56189Z" fill="white"/>
<path d="M16.431 8.58464L16.431 11.0978L26.2261 11.0978L26.2261 8.58464L16.431 8.58464Z" fill="white"/>
<path d="M66.7941 61.4381L69.3073 61.4381L69.3073 51.6431L66.7941 51.6431L66.7941 61.4381Z" fill="white"/>
<path d="M69.3073 61.4301L69.3073 58.9169L59.5123 58.9169L59.5123 61.4301L69.3073 61.4301Z" fill="white"/>
<path d="M36.6649 31.4385L32.6695 30.2785L29.1897 40.3313C29.0608 40.6536 29.2541 40.9758 29.5119 41.0402L33.3139 42.2646C33.5717 42.329 33.8939 42.2001 34.0228 41.9424L37.3093 32.6629C37.4382 32.0829 37.1804 31.5674 36.6649 31.4385Z" fill="white"/>
<path d="M28.0943 55.9261C23.9056 55.475 20.2324 52.9618 18.1703 49.3531C16.4949 46.3244 16.1082 42.7801 17.0104 39.4292C17.977 36.0782 20.168 33.2428 23.2612 31.5673C23.5189 31.4385 23.7767 31.3096 24.0345 31.1807C26.2255 30.1496 28.7387 29.6986 31.1874 30.0208C31.8963 30.0852 32.5407 30.2141 33.1851 30.4074L36.6005 31.4385C37.116 31.5673 37.3738 32.1473 37.1804 32.5984L35.4405 37.4959L31.6385 36.2715C31.2519 36.1427 30.8008 36.0782 30.4141 36.0138C29.0609 35.8849 27.772 36.0782 26.5477 36.6582C26.4188 36.7226 26.2899 36.7871 26.161 36.8515C24.55 37.7537 23.3256 39.2358 22.8101 41.0402C22.2946 42.8445 22.4879 44.7133 23.3901 46.3888C24.4856 48.322 26.4832 49.6753 28.7387 49.9331C30.0275 50.0619 31.3807 49.8686 32.5407 49.2886C32.6696 49.2242 32.7985 49.1598 32.9273 49.0953C34.4739 48.2576 35.6983 46.711 36.2783 44.9066L43.4312 24.5433C44.3334 21.3212 46.5888 18.5502 49.6176 16.8748C49.8753 16.7459 50.1331 16.617 50.3909 16.4881C52.5819 15.4571 55.0951 15.006 57.4794 15.3282C61.6681 15.7793 65.3412 18.2925 67.4033 21.9012C70.8831 28.152 68.6277 36.1427 62.3125 39.6869C62.0547 39.8158 61.7969 39.9447 61.5392 40.0736C59.3482 41.1046 56.8994 41.5557 54.4507 41.2335C53.7418 41.1691 53.0974 41.0402 52.453 40.8469L49.7465 40.0736C49.4887 40.0091 49.3598 39.7514 49.4243 39.4936L51.1642 34.6605C51.2286 34.4028 51.4864 34.2739 51.7441 34.3383L53.9351 34.9827H53.9996C54.3862 35.1116 54.7729 35.176 55.2239 35.2405C56.5772 35.3694 57.866 35.176 59.0904 34.5961C59.2193 34.5316 59.3482 34.4672 59.4771 34.4028C62.8924 32.534 64.1168 28.2164 62.248 24.8655C61.1525 22.9322 59.1549 21.579 56.8994 21.3212C55.6106 21.1923 54.2573 21.3857 53.0974 21.9656C52.9685 22.0301 52.8396 22.0945 52.7108 22.1589C51.2286 22.9967 50.1976 24.2855 49.3598 26.3476V26.4121L42.2069 46.711C41.2402 49.9331 38.9848 52.704 36.0205 54.3795C35.7627 54.5084 35.505 54.6373 35.2472 54.7661C32.9918 55.7972 30.543 56.2483 28.0943 55.9261Z" fill="white"/>
<path d="M92.5064 44.0218V25.5916H105.523V29.0714H96.4373V32.9379H105.33V36.4177H96.4373V40.6064H105.523V44.0862H92.5064V44.0218Z" fill="white"/>
<path d="M125.114 44.0217V35.58C125.114 34.3556 124.534 33.4534 123.116 33.4534C121.892 33.4534 120.861 34.2911 120.345 35V44.0217H116.801V35.58C116.801 34.3556 116.221 33.4534 114.803 33.4534C113.579 33.4534 112.548 34.2911 112.032 35V44.0217H108.552V30.6824H112.032V32.4224C112.612 31.6491 114.352 30.3602 116.414 30.3602C118.348 30.3602 119.636 31.2624 120.087 32.7446C120.861 31.5846 122.601 30.3602 124.663 30.3602C127.112 30.3602 128.594 31.6491 128.594 34.42V44.0862H125.114V44.0217Z" fill="white"/>
<path d="M132.073 44.0218V25.5916H135.553V32.3579C136.584 31.0047 138.066 30.2958 139.678 30.2958C143.093 30.2958 145.606 32.9379 145.606 37.2555C145.606 41.7019 143.093 44.2795 139.678 44.2795C138.066 44.2795 136.584 43.5707 135.553 42.2174V43.9573H132.073V44.0218ZM138.646 41.1864C140.644 41.1864 141.997 39.6398 141.997 37.3199C141.997 35 140.644 33.4534 138.646 33.4534C137.487 33.4534 136.198 34.0978 135.618 35V39.7042C136.198 40.6064 137.487 41.1864 138.646 41.1864Z" fill="white"/>
<path d="M147.41 37.3199C147.41 33.4534 150.31 30.3602 154.306 30.3602C158.301 30.3602 161.007 33.3245 161.007 37.7065V38.5443H151.084C151.341 40.1553 152.63 41.5085 154.95 41.5085C156.11 41.5085 157.657 41.0575 158.494 40.2197L160.041 42.5396C158.688 43.764 156.625 44.4084 154.563 44.4084C150.504 44.3439 147.41 41.573 147.41 37.3199ZM154.306 33.1956C152.115 33.1956 151.212 34.7422 151.019 36.031H157.592C157.528 34.8067 156.69 33.1956 154.306 33.1956Z" fill="white"/>
<path d="M172.736 44.0217V42.2818C171.705 43.6351 170.223 44.344 168.612 44.344C165.261 44.344 162.683 41.8307 162.683 37.3199C162.683 33.0023 165.196 30.3602 168.612 30.3602C170.158 30.3602 171.705 31.0046 172.736 32.4224V25.656H176.28V44.0862H172.736V44.0217ZM172.736 39.7042V35C172.156 34.0978 170.867 33.4534 169.707 33.4534C167.709 33.4534 166.292 35 166.292 37.3199C166.292 39.6397 167.645 41.1863 169.707 41.1863C170.867 41.1863 172.156 40.6064 172.736 39.7042Z" fill="white"/>
<path d="M179.824 44.0218V25.5916H188.459C192.455 25.5916 194.646 28.2981 194.646 31.5202C194.646 34.7422 192.455 37.4488 188.459 37.4488H183.755V44.0218H179.824ZM190.65 31.5202C190.65 29.9736 189.49 29.007 187.944 29.007H183.819V33.969H187.944C189.426 33.969 190.65 33.0668 190.65 31.5202Z" fill="white"/>
<path d="M197.03 44.0217V30.6824H200.51V32.4868C201.476 31.3268 203.087 30.3602 204.763 30.3602V33.7756C204.505 33.7112 204.183 33.7112 203.796 33.7112C202.636 33.7112 201.09 34.3556 200.51 35.2578V44.0862H197.03V44.0217Z" fill="white"/>
<path d="M206.116 37.3199C206.116 33.4534 209.016 30.3602 213.011 30.3602C217.006 30.3602 219.713 33.3245 219.713 37.7065V38.5443H209.789C210.047 40.1553 211.336 41.5085 213.656 41.5085C214.815 41.5085 216.362 41.0575 217.2 40.2197L218.746 42.5396C217.393 43.764 215.331 44.4084 213.269 44.4084C209.145 44.3439 206.116 41.573 206.116 37.3199ZM213.011 33.1956C210.82 33.1956 209.918 34.7422 209.725 36.031H216.298C216.233 34.8067 215.331 33.1956 213.011 33.1956Z" fill="white"/>
<path d="M221.066 42.2819L222.613 39.7687C223.58 40.7353 225.577 41.6375 227.253 41.6375C228.799 41.6375 229.508 41.0575 229.508 40.2198C229.508 38.0288 221.582 39.8331 221.582 34.6134C221.582 32.3579 223.515 30.4247 227.059 30.4247C229.315 30.4247 231.119 31.198 232.408 32.2291L230.99 34.7423C230.217 33.9045 228.67 33.1957 227.059 33.1957C225.771 33.1957 224.933 33.7757 224.933 34.4845C224.933 36.4177 232.859 34.8067 232.859 40.1553C232.859 42.6041 230.733 44.4084 227.059 44.4084C224.74 44.344 222.484 43.5707 221.066 42.2819Z" fill="white"/>
<path d="M234.277 42.2819L235.823 39.7687C236.79 40.7353 238.788 41.6375 240.463 41.6375C242.01 41.6375 242.719 41.0575 242.719 40.2198C242.719 38.0288 234.792 39.8331 234.792 34.6134C234.792 32.3579 236.726 30.4247 240.27 30.4247C242.525 30.4247 244.33 31.198 245.618 32.2291L244.201 34.7423C243.427 33.9045 241.881 33.1957 240.27 33.1957C238.981 33.1957 238.143 33.7757 238.143 34.4845C238.143 36.4177 246.07 34.8067 246.07 40.1553C246.07 42.6041 243.943 44.4084 240.27 44.4084C237.886 44.344 235.695 43.5707 234.277 42.2819Z" fill="white"/>
</svg>
