<svg width="180" height="48" viewBox="0 0 180 48" fill="none" xmlns="http://www.w3.org/2000/svg">
<path d="M8.40169 4.79108H6.57568V11.9078H8.40169V4.79108Z" fill="#988FBD"/>
<path d="M6.57617 4.80772L6.57617 6.63373L13.6929 6.63373L13.6929 4.80772L6.57617 4.80772Z" fill="#988FBD"/>
<path d="M43.162 43.2092L44.988 43.2092L44.988 36.0924L43.162 36.0924L43.162 43.2092Z" fill="#988FBD"/>
<path d="M44.988 43.2032L44.988 41.3772L37.8713 41.3772L37.8713 43.2032L44.988 43.2032Z" fill="#988FBD"/>
<path d="M21.2794 21.4125L18.3765 20.5697L15.8482 27.8737C15.7545 28.1078 15.895 28.3419 16.0823 28.3887L18.8447 29.2783C19.032 29.3252 19.2661 29.2315 19.3597 29.0442L21.7476 22.3021C21.8412 21.8807 21.6539 21.5061 21.2794 21.4125Z" fill="#5B4E96"/>
<path d="M15.054 39.2044C12.0107 38.8766 9.3419 37.0506 7.84364 34.4287C6.6263 32.2281 6.34538 29.6529 7.00087 27.2183C7.70318 24.7836 9.29508 22.7235 11.5425 21.5062C11.7298 21.4125 11.917 21.3189 12.1043 21.2252C13.6962 20.4761 15.5222 20.1484 17.3014 20.3825C17.8164 20.4293 18.2846 20.5229 18.7529 20.6634L21.2344 21.4125C21.6089 21.5062 21.7962 21.9275 21.6557 22.2553L20.3916 25.8137L17.6292 24.9241C17.3482 24.8304 17.0205 24.7836 16.7396 24.7368C15.7563 24.6431 14.8199 24.7836 13.9303 25.205C13.8367 25.2518 13.743 25.2986 13.6494 25.3454C12.4789 26.0009 11.5893 27.0778 11.2147 28.3888C10.8402 29.6998 10.9806 31.0576 11.6361 32.2749C12.4321 33.6795 13.8835 34.6628 15.5222 34.85C16.4586 34.9437 17.4419 34.8032 18.2846 34.3818C18.3783 34.335 18.4719 34.2882 18.5656 34.2414C19.6893 33.6327 20.5789 32.509 21.0002 31.198L26.1973 16.4027C26.8528 14.0617 28.4916 12.0484 30.6921 10.831C30.8794 10.7374 31.0667 10.6438 31.254 10.5501C32.8459 9.801 34.6719 9.47325 36.4042 9.70735C39.4476 10.0351 42.1164 11.8611 43.6146 14.4831C46.1429 19.0247 44.5042 24.8304 39.9158 27.4056C39.7285 27.4992 39.5412 27.5928 39.3539 27.6865C37.762 28.4356 35.9829 28.7634 34.2037 28.5293C33.6886 28.4824 33.2204 28.3888 32.7522 28.2483L30.7858 27.6865C30.5985 27.6397 30.5048 27.4524 30.5517 27.2651L31.8158 23.7535C31.8626 23.5663 32.0499 23.4726 32.2372 23.5194L33.8291 23.9877H33.8759C34.1569 24.0813 34.4378 24.1281 34.7655 24.1749C35.7488 24.2686 36.6852 24.1281 37.5748 23.7067C37.6684 23.6599 37.762 23.6131 37.8557 23.5663C40.3372 22.2085 41.2268 19.0715 39.869 16.6368C39.073 15.2322 37.6216 14.249 35.9829 14.0617C35.0464 13.968 34.0632 14.1085 33.2204 14.5299C33.1268 14.5767 33.0332 14.6235 32.9395 14.6703C31.8626 15.279 31.1135 16.2154 30.5048 17.7137V17.7605L25.3077 32.509C24.6054 34.85 22.9667 36.8633 20.813 38.0807C20.6257 38.1743 20.4384 38.2679 20.2511 38.3616C18.6124 39.1107 16.8332 39.4385 15.054 39.2044Z" fill="#5B4E96"/>
<path d="M61.8503 30.5552V17.1645H71.3081V19.6928H64.7064V22.502H71.1676V25.0304H64.7064V28.0737H71.3081V30.602H61.8503V30.5552Z" fill="#474559"/>
<path d="M85.5385 30.5553V24.4217C85.5385 23.5322 85.1171 22.8767 84.0871 22.8767C83.1975 22.8767 82.4484 23.4853 82.0738 24.0004V30.5553H79.4987V24.4217C79.4987 23.5322 79.0773 22.8767 78.0472 22.8767C77.1576 22.8767 76.4085 23.4853 76.0339 24.0004V30.5553H73.5056V20.8634H76.0339V22.1275C76.4553 21.5657 77.7195 20.6293 79.2177 20.6293C80.6224 20.6293 81.5588 21.2848 81.8865 22.3616C82.4484 21.5189 83.7125 20.6293 85.2108 20.6293C86.99 20.6293 88.0668 21.5657 88.0668 23.579V30.6021H85.5385V30.5553Z" fill="#474559"/>
<path d="M90.5964 30.5551V17.1644H93.1247V22.0805C93.8739 21.0973 94.9508 20.5823 96.1213 20.5823C98.6028 20.5823 100.429 22.5019 100.429 25.6389C100.429 28.8695 98.6028 30.7424 96.1213 30.7424C94.9508 30.7424 93.8739 30.2273 93.1247 29.2441V30.5083H90.5964V30.5551ZM95.3721 28.495C96.8236 28.495 97.8068 27.3713 97.8068 25.6857C97.8068 24.0002 96.8236 22.8765 95.3721 22.8765C94.5294 22.8765 93.593 23.3447 93.1716 24.0002V27.4181C93.593 28.0736 94.5294 28.495 95.3721 28.495Z" fill="#474559"/>
<path d="M101.739 25.6856C101.739 22.8764 103.846 20.629 106.749 20.629C109.651 20.629 111.618 22.7827 111.618 25.9665V26.5752H104.408C104.595 27.7457 105.531 28.7289 107.217 28.7289C108.06 28.7289 109.183 28.4012 109.792 27.7925L110.916 29.4781C109.932 30.3677 108.434 30.8359 106.936 30.8359C103.986 30.7891 101.739 28.7758 101.739 25.6856ZM106.749 22.6891C105.157 22.6891 104.501 23.8128 104.361 24.7492H109.136C109.09 23.8596 108.481 22.6891 106.749 22.6891Z" fill="#474559"/>
<path d="M120.14 30.5551V29.291C119.391 30.2742 118.314 30.7892 117.144 30.7892C114.709 30.7892 112.836 28.9632 112.836 25.6858C112.836 22.5488 114.662 20.6291 117.144 20.6291C118.267 20.6291 119.391 21.0974 120.14 22.1274V17.2112H122.715V30.6019H120.14V30.5551ZM120.14 27.4181V24.0002C119.719 23.3447 118.782 22.8765 117.94 22.8765C116.488 22.8765 115.458 24.0002 115.458 25.6858C115.458 27.3713 116.441 28.495 117.94 28.495C118.782 28.495 119.719 28.0736 120.14 27.4181Z" fill="#474559"/>
<path d="M125.289 30.5551V17.1644H131.563C134.466 17.1644 136.058 19.1308 136.058 21.4719C136.058 23.8129 134.466 25.7794 131.563 25.7794H128.145V30.5551H125.289ZM133.155 21.4719C133.155 20.3482 132.312 19.6459 131.188 19.6459H128.192V23.2511H131.188C132.265 23.2511 133.155 22.5956 133.155 21.4719Z" fill="#474559"/>
<path d="M137.799 30.5553V20.8634H140.327V22.1744C141.029 21.3316 142.2 20.6293 143.417 20.6293V23.1108C143.23 23.0639 142.996 23.064 142.715 23.064C141.872 23.064 140.748 23.5322 140.327 24.1876V30.6021H137.799V30.5553Z" fill="#474559"/>
<path d="M144.395 25.6859C144.395 22.8767 146.502 20.6293 149.405 20.6293C152.308 20.6293 154.274 22.783 154.274 25.9668V26.5755H147.064C147.251 27.746 148.187 28.7292 149.873 28.7292C150.716 28.7292 151.84 28.4015 152.448 27.7928L153.572 29.4784C152.589 30.368 151.09 30.8362 149.592 30.8362C146.596 30.7894 144.395 28.7761 144.395 25.6859ZM149.405 22.6894C147.813 22.6894 147.157 23.8131 147.017 24.7495H151.793C151.746 23.8599 151.09 22.6894 149.405 22.6894Z" fill="#474559"/>
<path d="M155.256 29.2908L156.379 27.4648C157.082 28.1671 158.533 28.8226 159.75 28.8226C160.874 28.8226 161.389 28.4012 161.389 27.7926C161.389 26.2007 155.63 27.5117 155.63 23.7192C155.63 22.0805 157.035 20.6758 159.61 20.6758C161.249 20.6758 162.56 21.2377 163.496 21.9868L162.466 23.8128C161.904 23.2042 160.78 22.6891 159.61 22.6891C158.674 22.6891 158.065 23.1105 158.065 23.6255C158.065 25.0302 163.824 23.8596 163.824 27.7458C163.824 29.5249 162.279 30.8359 159.61 30.8359C157.924 30.7891 156.286 30.2273 155.256 29.2908Z" fill="#474559"/>
<path d="M164.856 29.291L165.98 27.465C166.682 28.1673 168.134 28.8228 169.351 28.8228C170.475 28.8228 170.99 28.4014 170.99 27.7928C170.99 26.2009 165.231 27.5118 165.231 23.7194C165.231 22.0806 166.635 20.676 169.211 20.676C170.849 20.676 172.16 21.2379 173.097 21.987L172.067 23.813C171.505 23.2043 170.381 22.6893 169.211 22.6893C168.274 22.6893 167.665 23.1107 167.665 23.6257C167.665 25.0303 173.424 23.8598 173.424 27.7459C173.424 29.5251 171.879 30.8361 169.211 30.8361C167.478 30.7893 165.886 30.2274 164.856 29.291Z" fill="#474559"/>
</svg>
