<svg width="39" height="31" viewBox="0 0 39 31" fill="none" xmlns="http://www.w3.org/2000/svg">
<path d="M31.4468 26H7.55348C6.31849 26 5.31348 26.9721 5.31348 28.1667C5.31348 29.3612 6.31849 30.3333 7.55348 30.3333H31.4468C32.6818 30.3333 33.6868 29.3612 33.6868 28.1667C33.6868 26.9721 32.6818 26 31.4468 26Z" fill="#FF9900"/>
<path d="M35.1801 4.33333C33.533 4.33333 32.1935 5.62903 32.1935 7.22222C32.1935 8.29258 32.8058 9.21842 33.7032 9.71819C31.9755 13.676 29.28 16.1041 26.7607 15.8845C23.9592 15.6635 21.6744 12.4597 20.414 7.09943C22.0298 6.70362 23.2334 5.29529 23.2334 3.61111C23.2334 1.61922 21.5594 0 19.5001 0C17.4408 0 15.7667 1.61922 15.7667 3.61111C15.7667 5.29536 16.9704 6.70369 18.5861 7.09943C17.3258 12.4597 15.0409 15.6635 12.2395 15.8845C9.73071 16.1041 7.02324 13.676 5.29702 9.71819C6.19447 9.21842 6.80675 8.29251 6.80675 7.22222C6.80675 5.62903 5.4672 4.33333 3.82009 4.33333C2.17305 4.33333 0.833496 5.62903 0.833496 7.22222C0.833496 8.70426 1.99827 9.91469 3.48562 10.0793L6.36182 24.5556H32.6385L35.5146 10.0793C37.002 9.91469 38.1668 8.70426 38.1668 7.22222C38.1668 5.62903 36.8273 4.33333 35.1801 4.33333Z" fill="url(#paint0_linear_137_435)"/>
<defs>
<linearGradient id="paint0_linear_137_435" x1="19.5002" y1="0" x2="19.5002" y2="24.5556" gradientUnits="userSpaceOnUse">
<stop stop-color="#FFC045"/>
<stop offset="1" stop-color="#FF9900"/>
</linearGradient>
</defs>
</svg>
