<svg xmlns="http://www.w3.org/2000/svg" width="354.642" height="63.264" viewBox="0 0 354.642 63.264">
  <g id="Group_1231" data-name="Group 1231" transform="translate(-390.983 -898.212)">
    <g id="lock" transform="translate(390.983 898.212)">
      <g id="Group_205" data-name="Group 205" transform="translate(0)">
        <g id="Group_204" data-name="Group 204">
          <path id="Path_83" data-name="Path 83" d="M117.779,29.769V17.922C117.779,8.041,110.246,0,100.988,0S84.2,8.041,84.2,17.922v11.85A6.283,6.283,0,0,0,80,35.68V56.668a6.3,6.3,0,0,0,6.3,6.3H115.68a6.3,6.3,0,0,0,6.3-6.3V35.68A6.288,6.288,0,0,0,117.779,29.769ZM88.4,17.922C88.4,10.353,94.043,4.2,100.988,4.2s12.593,6.156,12.593,13.724V29.383H88.4Zm29.383,38.746a2.1,2.1,0,0,1-2.1,2.1H86.3a2.1,2.1,0,0,1-2.1-2.1V35.68a2.1,2.1,0,0,1,2.1-2.1H115.68a2.1,2.1,0,0,1,2.1,2.1Z" transform="translate(-80)" fill="#f85656"/>
          <path id="Path_84" data-name="Path 84" d="M212.158,304a4.144,4.144,0,0,0-2.079,7.737v4.736a2.079,2.079,0,0,0,4.158,0v-4.736A4.144,4.144,0,0,0,212.158,304Z" transform="translate(-191.17 -263.903)" fill="#f85656"/>
        </g>
      </g>
    </g>
    <g id="unlock" transform="translate(703.649 898.511)">
      <g id="Group_207" data-name="Group 207" transform="translate(0)">
        <g id="Group_206" data-name="Group 206">
          <path id="Path_85" data-name="Path 85" d="M117.779,29.769V17.922C117.779,8.041,110.246,0,100.988,0S84.2,8.041,84.2,17.922a2.1,2.1,0,0,0,4.2,0C88.4,10.353,94.043,4.2,100.988,4.2s12.593,6.156,12.593,13.724V29.383H86.3a6.3,6.3,0,0,0-6.3,6.3V56.668a6.3,6.3,0,0,0,6.3,6.3H115.68a6.3,6.3,0,0,0,6.3-6.3V35.68A6.288,6.288,0,0,0,117.779,29.769Zm0,26.9a2.1,2.1,0,0,1-2.1,2.1H86.3a2.1,2.1,0,0,1-2.1-2.1V35.68a2.1,2.1,0,0,1,2.1-2.1H115.68a2.1,2.1,0,0,1,2.1,2.1Z" transform="translate(-80)" fill="#0ccfc2"/>
          <path id="Path_86" data-name="Path 86" d="M212.2,304a4.184,4.184,0,0,0-2.1,7.812v4.781a2.1,2.1,0,0,0,4.2,0v-4.781A4.184,4.184,0,0,0,212.2,304Z" transform="translate(-191.21 -264.123)" fill="#0ccfc2"/>
        </g>
      </g>
    </g>
    <g id="key" transform="translate(536.822 898.212)">
      <g id="Group_208" data-name="Group 208" transform="translate(0 0)">
        <path id="Path_87" data-name="Path 87" d="M13.044,62.968H0V49.924S15.953,33.971,23.432,26.485a20.249,20.249,0,1,1,33.6,8.148,20.082,20.082,0,0,1-18.876,5.356c-.561-.131-1.119-.286-1.668-.464L31.2,44.816l-4.719.342-.342,4.719-3.988,3.988-4.719.342-.342,4.719ZM3.689,59.278h7.826l1.99-1.99.473-6.531,6.531-.473,2.044-2.045.473-6.531,6.531-.473,6-6,1.124.441a16.739,16.739,0,0,0,2.31.718,16.561,16.561,0,0,0,15.43-27.85A16.557,16.557,0,0,0,27.279,26.294l.438,1.122L3.689,51.452v7.826Z" transform="translate(0 -0.003)" fill="#5b4e96"/>
      </g>
      <g id="Group_209" data-name="Group 209" transform="translate(34.764 9.758)">
        <path id="Path_88" data-name="Path 88" d="M291.9,97.791a9.219,9.219,0,1,1,6.522-2.7A9.195,9.195,0,0,1,291.9,97.791Zm0-14.751a5.531,5.531,0,1,0,3.913,1.618A5.516,5.516,0,0,0,291.9,83.041Z" transform="translate(-282.68 -79.353)" fill="#5b4e96"/>
      </g>
    </g>
    <g id="right-arrow" transform="translate(464.662 923.398)" opacity="0.5">
      <g id="Group_211" data-name="Group 211" transform="translate(0 0)">
        <g id="Group_210" data-name="Group 210">
          <path id="Path_89" data-name="Path 89" d="M123.033,76.862a.8.8,0,0,0-.1-.1L111.544,65.052a.914.914,0,0,0-1.3-.05.927.927,0,0,0-.294.666v6.161H95.2c-.551,0-1.163.123-1.163.616V82.3A1.413,1.413,0,0,0,95.2,83.534h14.751v5.545a.986.986,0,0,0,.551.862h.367a.977.977,0,0,0,.673-.308l11.385-11.644A.8.8,0,0,0,123.033,76.862Z" transform="translate(-82.759 -64.756)" fill="#7c8db5"/>
          <path id="Path_90" data-name="Path 90" d="M63.634,122.122a.94.94,0,0,0-.94.94v10.027a.94.94,0,0,0,1.88,0V123.062A.94.94,0,0,0,63.634,122.122Z" transform="translate(-55.307 -115.458)" fill="#7c8db5"/>
          <path id="Path_91" data-name="Path 91" d="M32.287,122.122a.94.94,0,0,0-.94.94v10.027a.94.94,0,0,0,1.88,0V123.062A.94.94,0,0,0,32.287,122.122Z" transform="translate(-27.587 -115.458)" fill="#7c8db5"/>
          <path id="Path_92" data-name="Path 92" d="M.94,122.122a.94.94,0,0,0-.94.94v10.027a.94.94,0,0,0,1.88,0V123.062A.94.94,0,0,0,.94,122.122Z" transform="translate(0 -115.458)" fill="#7c8db5"/>
        </g>
      </g>
    </g>
    <g id="right-arrow-2" data-name="right-arrow" transform="translate(631.489 923.398)" opacity="0.5">
      <g id="Group_211-2" data-name="Group 211" transform="translate(0 0)">
        <g id="Group_210-2" data-name="Group 210">
          <path id="Path_89-2" data-name="Path 89" d="M123.033,76.862a.8.8,0,0,0-.1-.1L111.544,65.052a.914.914,0,0,0-1.3-.05.927.927,0,0,0-.294.666v6.161H95.2c-.551,0-1.163.123-1.163.616V82.3A1.413,1.413,0,0,0,95.2,83.534h14.751v5.545a.986.986,0,0,0,.551.862h.367a.977.977,0,0,0,.673-.308l11.385-11.644A.8.8,0,0,0,123.033,76.862Z" transform="translate(-82.759 -64.756)" fill="#7c8db5"/>
          <path id="Path_90-2" data-name="Path 90" d="M63.634,122.122a.94.94,0,0,0-.94.94v10.027a.94.94,0,0,0,1.88,0V123.062A.94.94,0,0,0,63.634,122.122Z" transform="translate(-55.307 -115.458)" fill="#7c8db5"/>
          <path id="Path_91-2" data-name="Path 91" d="M32.287,122.122a.94.94,0,0,0-.94.94v10.027a.94.94,0,0,0,1.88,0V123.062A.94.94,0,0,0,32.287,122.122Z" transform="translate(-27.587 -115.458)" fill="#7c8db5"/>
          <path id="Path_92-2" data-name="Path 92" d="M.94,122.122a.94.94,0,0,0-.94.94v10.027a.94.94,0,0,0,1.88,0V123.062A.94.94,0,0,0,.94,122.122Z" transform="translate(0 -115.458)" fill="#7c8db5"/>
        </g>
      </g>
    </g>
  </g>
</svg>
