<svg viewBox="0 0 40 40" xmlns="http://www.w3.org/2000/svg" xmlns:xlink="http://www.w3.org/1999/xlink" fill="none"><use xlink:href="#a" fill="url(#b)"/><use xlink:href="#a" fill="url(#c)"/><path d="m20 5.454-5.997.088c-1.548.071-2.605.316-3.53.676a7.12 7.12 0 0 0-2.577 1.677 7.14 7.14 0 0 0-1.679 2.576c-.361.925-.606 1.983-.676 3.53L5.454 20l.088 5.996c.071 1.549.316 2.605.676 3.53a7.13 7.13 0 0 0 1.678 2.577 7.12 7.12 0 0 0 2.576 1.679c.925.36 1.983.605 3.531.676l5.997.088 5.996-.088c1.548-.071 2.607-.316 3.532-.676a7.114 7.114 0 0 0 2.575-1.679 7.14 7.14 0 0 0 1.679-2.576c.358-.925.603-1.982.676-3.53L34.544 20l-.088-5.998c-.073-1.548-.318-2.605-.676-3.53a7.14 7.14 0 0 0-1.679-2.577 7.11 7.11 0 0 0-2.576-1.677c-.927-.36-1.985-.605-3.533-.676l-5.997-.088H20zm-1.305 2.621H20l5.877.084c1.418.065 2.188.302 2.7.501.679.264 1.163.579 1.672 1.088s.824.994 1.088 1.673c.199.512.436 1.282.501 2.7l.085 5.876-.085 5.876c-.065 1.418-.302 2.188-.501 2.7-.264.679-.579 1.162-1.088 1.671s-.992.824-1.672 1.088c-.512.2-1.282.436-2.7.501L20 31.917c-3.884 0-4.344-.015-5.877-.085-1.418-.065-2.188-.302-2.701-.502-.679-.264-1.164-.579-1.673-1.088s-.824-.993-1.088-1.672c-.199-.512-.436-1.282-.501-2.7l-.084-5.878.084-5.876c.065-1.418.302-2.188.501-2.701a4.51 4.51 0 0 1 1.088-1.673 4.51 4.51 0 0 1 1.673-1.088c.513-.2 1.283-.436 2.701-.502l4.573-.082v.004zm9.069 2.415a1.745 1.745 0 1 0 0 3.49 1.745 1.745 0 0 0 0-3.49v.001zM20 12.53A7.47 7.47 0 0 0 12.531 20 7.47 7.47 0 0 0 20 27.468 7.47 7.47 0 0 0 27.469 20 7.47 7.47 0 0 0 20 12.53zm0 2.621A4.85 4.85 0 0 1 24.849 20 4.85 4.85 0 0 1 20 24.848 4.85 4.85 0 0 1 15.152 20 4.85 4.85 0 0 1 20 15.151z" fill="#fff"/><defs><radialGradient id="b" cx="0" cy="0" r="1" gradientUnits="userSpaceOnUse" gradientTransform="matrix(0 -39.039 36.3181 0 10.769 42.727)"><stop stop-color="#fd5"/><stop offset=".1" stop-color="#fd5"/><stop offset=".5" stop-color="#ff543e"/><stop offset="1" stop-color="#c837ab"/></radialGradient><radialGradient id="c" cx="0" cy="0" r="1" gradientUnits="userSpaceOnUse" gradientTransform="matrix(3.42599 17.1112 -70.54873 14.1252 -6.297 3.14)"><stop stop-color="#3771c8"/><stop offset=".128" stop-color="#3771c8"/><stop offset="1" stop-color="#60f" stop-opacity="0"/></radialGradient><path id="a" d="M20.01.303 8.912.35c-1.688.14-2.738.406-3.882.976a7.866 7.866 0 0 0-2.264 1.657C1.516 4.281.759 5.877.485 7.774c-.133.921-.172 1.109-.18 5.815v6.402l.048 11.088c.136 1.643.394 2.676.939 3.806a8.3 8.3 0 0 0 5.379 4.394c.812.209 1.709.324 2.861.379.488.021 5.46.036 10.436.036l10.427-.03c1.333-.063 2.107-.167 2.964-.388a8.25 8.25 0 0 0 5.379-4.403c.535-1.103.806-2.176.929-3.732.027-.339.038-5.751.038-11.155l-.04-11.146c-.124-1.582-.395-2.645-.948-3.77a7.805 7.805 0 0 0-1.686-2.31C35.727 1.515 34.134.758 32.234.484c-.92-.133-1.104-.172-5.812-.181H20.01z"/></defs></svg>