<?xml version="1.0" encoding="utf-8"?>
<!-- Generator: Adobe Illustrator 25.2.3, SVG Export Plug-In . SVG Version: 6.00 Build 0)  -->
<svg version="1.1" id="Layer_1" xmlns="http://www.w3.org/2000/svg" xmlns:xlink="http://www.w3.org/1999/xlink" x="0px" y="0px"
	 viewBox="0 0 100 100" width="20px"  xml:space="preserve">
<style type="text/css">
	.st0{fill:#FFFFFF;}
</style>
<g>
	<polygon class="st0" points="0,0 0,19.3 5.6,19.3 5.6,5.6 19.3,5.6 19.3,0 	"/>
	<polygon class="st0" points="94.4,80.7 94.4,94.4 80.7,94.4 80.7,100 100,100 100,80.7 	"/>
	<path class="st0" d="M96.6,25.2c-3.8-6.9-10.8-11.5-18.7-12.5c-4.6-0.5-9.3,0.2-13.5,2.2c-0.5,0.2-1,0.5-1.4,0.7
		c-5.7,3.2-9.9,8.5-11.7,14.5l0,0L37.7,68.7c-1.1,3.5-3.4,6.3-6.3,7.9c-0.2,0.1-0.5,0.3-0.8,0.4c-2.3,1.1-4.8,1.5-7.2,1.2
		c-4.2-0.5-8-3-10.1-6.7c-1.7-3.1-2.1-6.7-1.1-10.1c1-3.4,3.2-6.2,6.3-8c0.3-0.1,0.5-0.3,0.8-0.4c2.3-1.1,4.7-1.5,7.3-1.2
		c0.1,0,0.2,0,0.3,0L24,60c-0.2,0.6,0.1,1.2,0.7,1.3l7.2,2.3c0.5,0.2,1.1-0.1,1.3-0.6l6.2-17.6c0.2-0.5,0.1-0.9-0.1-1.3
		c-0.2-0.4-0.6-0.7-1.1-0.9l-6.5-1.9c-0.2,0-0.3-0.1-0.5-0.1L30.7,41l0,0c-0.9-0.2-1.8-0.4-2.8-0.5c-4.6-0.5-9.3,0.2-13.5,2.2
		c-0.5,0.2-1,0.5-1.5,0.7C7.2,46.8,3,52,1.2,58.4c-1.8,6.3-1,13,2.2,18.7C7.2,84,14.2,88.7,22.1,89.6c4.6,0.5,9.3-0.2,13.5-2.2
		c0.5-0.2,1-0.5,1.4-0.7c5.7-3.2,9.9-8.4,11.7-14.5l0,0l13.5-38.4l0-0.1l0,0c1.5-3.9,3.4-6.3,6.3-7.9c0.3-0.1,0.5-0.3,0.8-0.4
		c2.3-1.1,4.8-1.5,7.2-1.2c4.2,0.5,8,3,10.1,6.7c3.6,6.4,1.2,14.5-5.2,18c-0.3,0.1-0.5,0.3-0.8,0.4c-2.3,1.1-4.7,1.5-7.3,1.2
		c-0.8-0.1-1.5-0.2-2.3-0.4l-0.1,0l-4.2-1.2c-0.5-0.1-0.9,0.1-1.1,0.6l-3.2,9.2c-0.2,0.5,0.1,1,0.6,1.1l5.1,1.5
		c1.2,0.3,2.5,0.6,3.8,0.7c4.6,0.5,9.2-0.2,13.4-2.2l0,0c0.5-0.2,1-0.5,1.5-0.8C98.8,52.2,103.2,37.1,96.6,25.2z"/>
</g>
</svg>
