<svg id="EmbedPress" xmlns="http://www.w3.org/2000/svg" width="91.226" height="91.226" viewBox="0 0 91.226 91.226">
  <g id="Group_2" data-name="Group 2" transform="translate(0 0)">
    <path id="Path_12" data-name="Path 12" d="M187.4,174.9v12.5H174.9V192.5h17.6V174.9Z" transform="translate(-101.271 -101.271)" fill="#9595c1"/>
    <path id="Path_13" data-name="Path 13" d="M88.255,38.749A22.6,22.6,0,0,0,71.163,27.383,22.279,22.279,0,0,0,58.912,29.4c-.421.21-.884.421-1.305.674A22.538,22.538,0,0,0,46.915,43.338h0L34.622,78.405a12.808,12.808,0,0,1-5.767,7.241c-.21.126-.463.253-.716.379A12.309,12.309,0,0,1,21.53,87.12a12.181,12.181,0,0,1-9.177-6.1A12.027,12.027,0,0,1,11.3,71.838a12.16,12.16,0,0,1,5.767-7.283c.253-.126.463-.253.716-.379a12.243,12.243,0,0,1,6.609-1.095c.084,0,.168.042.253.042l-2.526,7.367a.955.955,0,0,0,.589,1.221l6.525,2.1a.91.91,0,0,0,1.179-.589l5.641-16.039a1.536,1.536,0,0,0-.084-1.221,1.445,1.445,0,0,0-.968-.8l-5.936-1.726a1.5,1.5,0,0,0-.421-.084l-.547-.168v.042c-.842-.21-1.684-.337-2.526-.463a22.488,22.488,0,0,0-12.293,2.021c-.463.21-.884.463-1.305.674A22.524,22.524,0,0,0,1.2,69.017,22.242,22.242,0,0,0,3.175,86.109,22.6,22.6,0,0,0,20.267,97.476a22.279,22.279,0,0,0,12.25-2.021c.421-.21.884-.421,1.305-.674A22.417,22.417,0,0,0,44.473,81.563h0L56.85,46.5v-.126c1.389-3.536,3.157-5.767,5.725-7.2.21-.126.463-.253.716-.379A12.309,12.309,0,0,1,69.9,37.7a12.069,12.069,0,0,1,4.462,22.564c-.253.126-.463.253-.716.379A12.393,12.393,0,0,1,67,61.735a11.96,11.96,0,0,1-2.063-.421h-.084l-3.789-1.137a.756.756,0,0,0-.968.505L57.144,69.06a.8.8,0,0,0,.547,1.052l4.673,1.347a20,20,0,0,0,3.452.674,22.342,22.342,0,0,0,12.25-2.021h.042c.463-.21.884-.463,1.347-.674A22.671,22.671,0,0,0,88.255,38.749Z" transform="translate(-0.186 -15.764)" fill="#fff"/>
    <path id="Path_1" data-name="Path 1" d="M0,0V17.6H5.094V5.094H17.555V0Z" fill="#9595c1"/>
  </g>
</svg>
