<svg width="72" height="81" viewBox="0 0 72 81" fill="none" xmlns="http://www.w3.org/2000/svg">
<path fill-rule="evenodd" clip-rule="evenodd" d="M19.4258 71.7096C20.2879 71.904 21.1847 72.0067 22.1055 72.0067H46.2754C55.7979 72.0067 63.5175 64.2863 63.5175 54.7628C63.5175 47.0427 58.4447 40.5074 51.4509 38.3092L19.4258 71.7096Z" fill="#6E58F7"/>
<path d="M8.79883 19.4475C8.79883 13.1418 13.9101 8.03009 20.2151 8.03009H46.9842C53.2892 8.03009 58.4005 13.1418 58.4005 19.4475V34.0954C58.4005 37.1441 57.1813 40.0662 55.0145 42.2107L28.2454 68.7051C21.0366 75.84 8.79883 70.733 8.79883 60.5898V19.4475Z" fill="url(#paint0_linear_454_119)"/>
<path d="M30.8447 25.1559C30.8447 21.5682 33.7528 18.6598 37.3402 18.6598H58.4012V31.652H37.3402C33.7528 31.652 30.8447 28.7436 30.8447 25.1559Z" fill="white"/>
<path d="M37.4996 28.3062C39.1326 28.3062 40.4563 26.8961 40.4563 25.1566C40.4563 23.4171 39.1326 22.0069 37.4996 22.0069C35.8667 22.0069 34.543 23.4171 34.543 25.1566C34.543 26.8961 35.8667 28.3062 37.4996 28.3062Z" fill="#6E58F7"/>
<defs>
<linearGradient id="paint0_linear_454_119" x1="15.7866" y1="65.7772" x2="58.4062" y2="8.0343" gradientUnits="userSpaceOnUse">
<stop stop-color="#A293FF"/>
<stop offset="1" stop-color="#6E58F7"/>
</linearGradient>
</defs>
</svg>
