<svg width="48" height="48" viewBox="0 0 48 48" fill="none" xmlns="http://www.w3.org/2000/svg"><g clip-path="url(#clip0_516_2553)"><path d="M18.1055 39.9958H29.2715C29.0715 41.2887 26.537 42.935 24.3791 43.1675C21.891 43.4373 18.8728 41.9305 18.1101 39.9958H18.1055Z" fill="#5614D5"></path><path d="M41.3824 34.7969C41.1545 34.7783 40.9173 34.7876 40.6894 34.7876C40.136 34.7876 39.5872 34.7876 38.9036 34.7876V33.7738C38.9036 29.1883 38.9222 24.6028 38.885 20.0174C38.8757 18.9803 38.7827 17.9292 38.5781 16.9154C36.8713 8.47462 28.3747 3.15901 20.0083 5.26107C13.3301 6.93993 8.52137 13.0275 8.54927 19.9523C8.56788 24.1192 8.54927 28.2907 8.54927 32.4577C8.54927 32.8344 8.54927 34.011 8.54927 34.7923C8.04236 34.7923 6.57743 34.7783 6.06121 34.8109C5.30317 34.8574 4.7916 35.4433 4.80091 36.1967C4.81021 36.9315 5.29387 37.4524 6.04261 37.5175C6.25189 37.5361 6.46116 37.5314 6.66579 37.5314C18.0365 37.5314 29.4071 37.5361 40.7778 37.5407C40.9871 37.5407 41.1963 37.5407 41.401 37.5221C42.1358 37.4477 42.638 36.9083 42.652 36.1921C42.6659 35.4666 42.1172 34.8667 41.3777 34.8016L41.3824 34.7969Z" fill="#5614D5"></path><path d="M32.4621 28.374C33.3039 28.374 33.9829 29.0577 33.9829 29.8948C33.9829 30.7319 33.2993 31.4155 32.4621 31.4155C31.625 31.4155 30.9414 30.7319 30.9414 29.8948C30.9414 29.0577 31.625 28.374 32.4621 28.374Z" fill="#836EFF"></path><path d="M33.8534 18.515L33.8766 18.501C33.858 18.3708 33.8394 18.2406 33.8115 18.115C32.886 13.5528 28.9517 10.1858 24.329 9.91142C24.3243 9.91142 24.315 9.91142 24.3104 9.91142C24.1104 9.89747 23.9151 9.89282 23.7151 9.89282H23.6872C23.4872 9.89282 23.2872 9.90212 23.0919 9.91142C23.0873 9.91142 23.078 9.91142 23.0733 9.91142C18.4506 10.1858 14.5162 13.5528 13.5908 18.115C13.5675 18.2406 13.5489 18.3708 13.5257 18.501L13.5489 18.515C13.4606 19.0545 13.4141 19.6079 13.4141 20.166C13.4141 20.6078 13.4141 29.9787 13.4141 31.2529L16.5718 34.6618C16.5718 32.2761 16.5718 21.51 16.5672 20.152C16.5532 16.9478 18.8227 14.0504 21.9618 13.2598C22.2223 13.1947 22.4873 13.1436 22.7478 13.111C22.7943 13.1064 22.8361 13.0971 22.8826 13.0924C22.985 13.0785 23.0826 13.0738 23.1803 13.0645C23.3244 13.0552 23.4686 13.0459 23.6128 13.0459C23.6407 13.0459 23.6639 13.0459 23.6918 13.0459C23.7197 13.0459 23.743 13.0459 23.7709 13.0459C23.9151 13.0459 24.0592 13.0552 24.2034 13.0645C24.3057 13.0738 24.4034 13.0831 24.501 13.0924C24.5476 13.0971 24.5894 13.1064 24.6359 13.111C24.901 13.1482 25.1614 13.1947 25.4219 13.2598C28.561 14.0504 30.8305 16.9478 30.8165 20.152C30.8165 20.6589 30.8165 25.0956 30.8165 27.1697L33.9743 25.063C33.9743 23.8632 33.9743 20.3008 33.9743 20.166C33.9743 19.6079 33.9278 19.0545 33.8394 18.515H33.8534Z" fill="#836EFF"></path><path d="M38.8862 20.0215C38.8862 20.6122 38.8908 21.1981 38.8955 21.7888L42.7415 19.2356L40.2628 15.5151L38.5234 16.6638C38.542 16.7475 38.5653 16.8313 38.5839 16.9196C38.7885 17.9334 38.8815 18.9891 38.8908 20.0215H38.8862Z" fill="#00F9AC"></path><path opacity="0.9" d="M13.3466 24.6023L10.0586 27.6299L17.7274 35.9079L38.8922 21.7934C38.8922 21.2028 38.8922 20.6168 38.8829 20.0262C38.8736 18.9891 38.7806 17.9381 38.576 16.9242C38.5574 16.8359 38.5341 16.7522 38.5155 16.6685L18.425 30.0668L13.3466 24.6023Z" fill="#21D8A3"></path></g><defs><clipPath id="clip0_516_2553"><rect width="38.4" height="38.4001" fill="white" transform="translate(4.80078 4.80005)"></rect></clipPath></defs></svg>