<svg width="30" height="30" viewBox="0 -2.402 30 30" xmlns="http://www.w3.org/2000/svg"
    preserveAspectRatio="xMidYMid">
    <path
        d="M13.39.317 2.21 4.942a.749.749 0 0 0 .01 1.388l11.226 4.452a4.17 4.17 0 0 0 3.071 0L27.743 6.33a.749.749 0 0 0 .01-1.388L16.575.316a4.17 4.17 0 0 0-3.186 0"
        fill="#FFBF00" />
    <path
        d="M15.979 13.214v11.121c0 .529.533.891 1.025.696l12.51-4.856a.75.75 0 0 0 .473-.696V8.358a.75.75 0 0 0-1.025-.696l-12.51 4.856a.75.75 0 0 0-.473.696"
        fill="#26B5F8" />
    <path
        d="M13.057 13.788 9.345 15.58l-.377.182-7.837 3.755C.634 19.757 0 19.395 0 18.843V8.405c0-.2.102-.372.24-.502a1 1 0 0 1 .19-.142.8.8 0 0 1 .682-.052l11.884 4.709c.604.24.652 1.086.062 1.371"
        fill="#ED3049" />
    <path
        d="M13.057 13.788 9.345 15.58.24 7.903a1 1 0 0 1 .19-.142.8.8 0 0 1 .682-.052l11.884 4.709c.604.24.652 1.086.062 1.371"
        fill-opacity=".25" />
</svg>