<svg viewBox="0 0 30 30" data-name="Layer 1" xmlns="http://www.w3.org/2000/svg" width="30" height="30"><g stroke-width="0"/><g stroke-linecap="round" stroke-linejoin="round"/><path d="M18.063.975A10.11 10.11 0 0 0 7.25 4.112l4.787 4.025Z" transform="translate(-.422 -.412)scale(1.03)" style="fill:#1a73e8"/><path d="M7.25 4.112a10.1 10.1 0 0 0-2.362 6.5 11.4 11.4 0 0 0 1 4.825l6.15-7.3Z" transform="translate(-.422 -.412)scale(1.03)" style="fill:#ea4335"/><path d="M15 6.75a3.86 3.86 0 0 1 3.875 3.862 3.83 3.83 0 0 1-.925 2.5l6.025-7.163a10.15 10.15 0 0 0-5.913-5l-6.024 7.188A3.84 3.84 0 0 1 15 6.75" transform="translate(-.422 -.412)scale(1.03)" style="fill:#4285f4"/><path d="M15 14.488a3.875 3.875 0 0 1-3.875-3.875 3.84 3.84 0 0 1 .912-2.5l-6.15 7.325a36 36 0 0 0 4.588 6.563l7.5-8.888A3.84 3.84 0 0 1 15 14.488" transform="translate(-.422 -.412)scale(1.03)" style="fill:#fbbc04"/><path d="M17.813 24.425c3.375-5.275 7.3-7.675 7.3-13.75a10.1 10.1 0 0 0-1.137-4.662L10.475 22c.575.75 1.15 1.55 1.713 2.425 2.063 3.175 1.487 5.075 2.813 5.075s.75-1.9 2.813-5.075" transform="translate(-.422 -.412)scale(1.03)" style="fill:#34a853"/></svg>