<svg xmlns="http://www.w3.org/2000/svg" width="100" height="100" viewBox="0 0 48 48"><circle cx="24" cy="24" r="20" fill="#1565c0"/><path fill="#fff" d="M12 27h7c0 1.491.515 2 2 2h7c.84 0 2.157-.287 2.707-1.316l6.178-1.798.115 1.678c-1.074.407-1.979.648-3.612 3.327-2.25 3.327-2.605 3.109-5.33 3.109H19c-4.08 0-7-3-7-7m7.172-10.966C22.759 20.517 19 25 19 25h-6z"/><path fill="#fff" d="M21 27h7s8.207-5.448-1.655-11.724C23.655 14.379 20 14 20 14s6 7 1 13"/><path fill="#fff" d="M25 12a1 1 0 0 0-1 1v17h2V13a1 1 0 0 0-1-1"/></svg>