<svg height="30" width="30" xmlns="http://www.w3.org/2000/svg" viewBox="0 0 46.39 46.39" xml:space="preserve"><g stroke-width="0"/><g stroke-linecap="round" stroke-linejoin="round"/><path style="fill:#e2574c" d="M5.799 0h24.634L43.49 13.007v30.484a2.9 2.9 0 0 1-2.899 2.899H5.799A2.9 2.9 0 0 1 2.9 43.491V2.899A2.9 2.9 0 0 1 5.799 0"/><path style="fill:#b53629" d="M43.449 13.047H33.343a2.9 2.9 0 0 1-2.899-2.899V.029z"/><path style="fill:#fff" d="M32.615 21.982c.486 0 .723-.423.723-.834 0-.425-.248-.835-.723-.835h-2.766c-.541 0-.842.448-.842.942v6.798c0 .606.345.942.812.942.464 0 .81-.336.81-.942v-1.866h1.673c.519 0 .779-.425.779-.847 0-.413-.26-.824-.779-.824h-1.673v-2.535zm-9.349-1.669h-2.024c-.549 0-.939.377-.939.936v6.809c0 .694.561.912.963.912h2.124c2.514 0 4.174-1.654 4.174-4.207-.001-2.699-1.564-4.45-4.297-4.45m.097 6.979H22.13v-5.3h1.112c1.683 0 2.415 1.129 2.415 2.688 0 1.458-.719 2.612-2.293 2.612m-7.415-6.979h-2.004c-.567 0-.883.374-.883.942v6.798c0 .606.362.942.849.942s.849-.336.849-.942v-1.985h1.257c1.551 0 2.831-1.099 2.831-2.866 0-1.729-1.235-2.889-2.899-2.889m-.033 4.161h-1.155v-2.565h1.155c.713 0 1.167.557 1.167 1.283-.002.725-.454 1.282-1.167 1.282"/></svg>