<svg viewBox="0 0 30 30" xmlns="http://www.w3.org/2000/svg" width="30" height="30"><g stroke-width="0"/><g stroke-linecap="round" stroke-linejoin="round"/><path d="M23.85 13.35c-4.8-2.85-12.825-3.15-17.4-1.725-.75.225-1.5-.225-1.725-.9-.225-.75.225-1.5.9-1.725 5.325-1.575 14.1-1.275 19.65 2.025.675.375.9 1.275.525 1.95-.375.525-1.275.75-1.95.375m-.15 4.2c-.375.525-1.05.75-1.575.375C18.075 15.45 11.925 14.7 7.2 16.2c-.6.15-1.275-.15-1.425-.75s.15-1.275.75-1.425C12 12.375 18.75 13.2 23.4 16.05c.45.225.675.975.3 1.5m-1.8 4.125c-.3.45-.825.6-1.275.3-3.525-2.175-7.95-2.625-13.2-1.425-.525.15-.975-.225-1.125-.675-.15-.525.225-.975.675-1.125 5.7-1.275 10.65-.75 14.55 1.65.525.225.6.825.375 1.275M15 0C6.75 0 0 6.75 0 15s6.75 15 15 15 15-6.75 15-15S23.325 0 15 0" fill="#00DA5A" fill-rule="evenodd"/></svg>