<svg xmlns="http://www.w3.org/2000/svg" viewBox="0 0 30 30" xml:space="preserve" width="30" height="30"><g stroke-width="0"/><g stroke-linecap="round" stroke-linejoin="round"/><path d="M21.563 0H8.438A8.403 8.403 0 0 0 0 8.438v13.125a8.403 8.403 0 0 0 8.438 8.438h13.125a8.403 8.403 0 0 0 8.438-8.438V8.438A8.403 8.403 0 0 0 21.563 0" style="fill:#1ab7ea"/><path d="M21.375 20.156c-3.094 4.125-5.719 6.094-8.063 6.094-1.688 0-3-1.406-4.031-4.125L7.5 15.656c-.469-1.875-.938-2.531-1.125-2.719-.188.094-.563.375-1.125.75-.375.281-1.031.188-1.313-.188l-.938-1.313c-.281-.375-.281-.938.094-1.219l3.094-2.813c1.594-1.498 2.626-2.435 3.657-2.529s3.469.094 4.125 4.5c.469 3.281.75 4.406.844 4.875.281 1.406.563 2.156.75 2.438.188-.188.563-.656 1.125-1.5 1.031-1.594 1.219-2.438 1.313-2.813.094-.469 0-.656-.094-.75 0 0-.188-.094-.375-.094-.375 0-.75.094-1.219.281-.375.188-.75.094-1.031-.188s-.375-.656-.281-.938c1.218-3.936 3.374-5.811 6.749-5.717 1.219 0 2.344.563 3.188 1.406.938 1.031 1.406 2.531 1.406 4.219-.188 2.344-2.063 4.875-4.969 8.813" style="fill:#fff"/></svg>