<svg viewBox="0 0 30 30" xmlns="http://www.w3.org/2000/svg" fill="none" width="30" height="30"><g stroke-width="0"/><g stroke-linecap="round" stroke-linejoin="round"/><path fill="red" d="M27.585 8.687a3.28 3.28 0 0 0-2.314-2.314C23.216 5.831 15 5.831 15 5.831s-8.216 0-10.271.542a3.29 3.29 0 0 0-2.314 2.314C1.875 10.74 1.875 15 1.875 15s0 4.281.54 6.313a3.29 3.29 0 0 0 2.314 2.314c2.055.542 10.271.542 10.271.542s8.216 0 10.271-.542a3.28 3.28 0 0 0 2.314-2.314c.54-2.053.54-6.313.54-6.313s0-4.26-.54-6.313"/><path fill="#fff" d="m12.362 18.956 6.833-3.934-6.833-3.956z"/></svg>